<svg width="24" height="24" viewBox="0 0 24 24" fill="none" xmlns="http://www.w3.org/2000/svg">
<path d="M17 13H7C6.73478 13 6.48043 12.8946 6.29289 12.7071C6.10536 12.5196 6 12.2652 6 12C6 11.7348 6.10536 11.4804 6.29289 11.2929C6.48043 11.1054 6.73478 11 7 11H17C17.2652 11 17.5196 11.1054 17.7071 11.2929C17.8946 11.4804 18 11.7348 18 12C18 12.2652 17.8946 12.5196 17.7071 12.7071C17.5196 12.8946 17.2652 13 17 13Z" fill="#0E0F11"/>
<path d="M12 17.9999C11.8686 18 11.7386 17.9742 11.6172 17.9239C11.4959 17.8736 11.3857 17.7999 11.293 17.7069L6.29297 12.7069C6.20009 12.614 6.12641 12.5038 6.07614 12.3825C6.02587 12.2612 6 12.1312 6 11.9998C6 11.8685 6.02587 11.7385 6.07614 11.6172C6.12641 11.4959 6.20009 11.3856 6.29297 11.2928L11.293 6.29281C11.4809 6.10724 11.7346 6.00356 11.9987 6.0044C12.2628 6.00524 12.5158 6.11052 12.7026 6.29727C12.8893 6.48402 12.9946 6.73706 12.9954 7.00116C12.9962 7.26526 12.8925 7.51895 12.707 7.70687L8.41403 11.9999L12.707 16.2929C12.8468 16.4327 12.9421 16.6109 12.9806 16.8048C13.0192 16.9988 12.9994 17.1998 12.9237 17.3825C12.848 17.5653 12.7199 17.7214 12.5555 17.8313C12.391 17.9412 12.1977 17.9998 12 17.9999Z" fill="#0E0F11"/>
</svg>
