<svg width="16" height="16" viewBox="0 0 16 16" xmlns="http://www.w3.org/2000/svg">
<path d="M15.3088 9.21476C15.3062 9.17555 15.2999 9.13667 15.29 9.09863L13.7536 5.00724C14.0332 4.82638 14.2632 4.57846 14.4225 4.28605C14.5819 3.99364 14.6656 3.66602 14.666 3.33301C14.666 3.1562 14.5958 2.98663 14.4708 2.8616C14.3457 2.73658 14.1762 2.66634 13.9993 2.66634C13.8225 2.66634 13.653 2.73658 13.5279 2.8616C13.4029 2.98663 13.3327 3.1562 13.3327 3.33301C13.3326 3.48157 13.283 3.62587 13.1916 3.743C13.1002 3.86013 12.9723 3.9434 12.8282 3.97959C12.6841 4.01578 12.5321 4.00282 12.3962 3.94277C12.2603 3.88272 12.1484 3.77902 12.0781 3.64811C11.9071 3.34446 11.6569 3.09282 11.3543 2.91995C11.0516 2.74708 10.7078 2.65944 10.3593 2.66634H8.66602V1.99967C8.66602 1.82286 8.59578 1.65329 8.47075 1.52827C8.34573 1.40325 8.17616 1.33301 7.99935 1.33301C7.82254 1.33301 7.65297 1.40325 7.52794 1.52827C7.40292 1.65329 7.33268 1.82286 7.33268 1.99967V2.66634H5.63935C5.29089 2.65944 4.94707 2.74708 4.64443 2.91995C4.34179 3.09282 4.09165 3.34446 3.92058 3.64811C3.85033 3.77902 3.73838 3.88272 3.60249 3.94277C3.4666 4.00282 3.31456 4.01578 3.17047 3.97959C3.02638 3.9434 2.8985 3.86013 2.80711 3.743C2.71573 3.62587 2.66607 3.48157 2.66602 3.33301C2.66602 3.1562 2.59578 2.98663 2.47075 2.8616C2.34573 2.73658 2.17616 2.66634 1.99935 2.66634C1.82254 2.66634 1.65297 2.73658 1.52794 2.8616C1.40292 2.98663 1.33268 3.1562 1.33268 3.33301C1.33312 3.66602 1.41682 3.99364 1.57618 4.28605C1.73554 4.57846 1.9655 4.82638 2.24512 5.00724L0.708682 9.09863C0.69882 9.13667 0.692528 9.17555 0.689889 9.21476C0.678181 9.25333 0.670187 9.29292 0.666016 9.33301C0.666016 9.33919 0.667809 9.34489 0.667849 9.35107C0.668049 9.35986 0.669849 9.36796 0.670449 9.37671C0.680829 10.0759 0.96588 10.743 1.46402 11.2338C1.96215 11.7246 2.63338 11.9997 3.33268 11.9997C4.03198 11.9997 4.70321 11.7246 5.20135 11.2338C5.69948 10.743 5.98454 10.0759 5.99492 9.37671C5.99548 9.36796 5.99731 9.35986 5.99752 9.35107C5.99756 9.34489 5.99935 9.33919 5.99935 9.33301C5.99519 9.29292 5.9872 9.25333 5.9755 9.21476C5.97286 9.17555 5.96657 9.13667 5.95671 9.09863L4.41846 5.00248C4.70096 4.82219 4.93344 4.57357 5.0944 4.27962C5.15258 4.18914 5.23359 4.11561 5.32928 4.06646C5.42496 4.0173 5.53192 3.99427 5.63935 3.99967H7.33268V13.333H5.33268C5.15587 13.333 4.9863 13.4032 4.86128 13.5283C4.73625 13.6533 4.66602 13.8229 4.66602 13.9997C4.66602 14.1765 4.73625 14.3461 4.86128 14.4711C4.9863 14.5961 5.15587 14.6663 5.33268 14.6663H10.666C10.8428 14.6663 11.0124 14.5961 11.1374 14.4711C11.2624 14.3461 11.3327 14.1765 11.3327 13.9997C11.3327 13.8229 11.2624 13.6533 11.1374 13.5283C11.0124 13.4032 10.8428 13.333 10.666 13.333H8.66602V3.99967H10.3593C10.4668 3.99427 10.5737 4.01731 10.6694 4.06646C10.7651 4.11562 10.8461 4.18914 10.9043 4.27962C11.0652 4.57357 11.2977 4.82219 11.5802 5.00248L10.042 9.09863C10.0322 9.13667 10.0259 9.17555 10.0232 9.21476C10.0115 9.25333 10.0035 9.29292 9.99935 9.33301C9.99935 9.33919 10.0011 9.34489 10.0012 9.35107C10.0014 9.35986 10.0032 9.36796 10.0038 9.37671C10.0142 10.0759 10.2992 10.743 10.7973 11.2338C11.2955 11.7246 11.9667 11.9997 12.666 11.9997C13.3653 11.9997 14.0365 11.7246 14.5347 11.2338C15.0328 10.743 15.3179 10.0759 15.3282 9.37671C15.3288 9.36796 15.3306 9.35986 15.3308 9.35107C15.3309 9.34489 15.3327 9.33919 15.3327 9.33301C15.3285 9.29292 15.3205 9.25333 15.3088 9.21476ZM3.33268 5.90336L4.37028 8.66634H2.29508L3.33268 5.90336ZM4.48112 9.99967C4.36347 10.2004 4.19587 10.3673 3.99463 10.4841C3.7934 10.601 3.56536 10.6637 3.33268 10.6663C3.0987 10.6663 2.86887 10.6046 2.66625 10.4876C2.46364 10.3706 2.29538 10.2023 2.17838 9.99967H4.48112ZM12.666 5.90336L13.7036 8.66634H11.6284L12.666 5.90336ZM12.666 10.6663C12.432 10.6663 12.2022 10.6046 11.9996 10.4876C11.797 10.3706 11.6287 10.2023 11.5117 9.99967H13.8145C13.6968 10.2004 13.5292 10.3673 13.328 10.4841C13.1267 10.601 12.8987 10.6637 12.666 10.6663Z" />
</svg>
