<svg width="20" height="20" viewBox="0 0 20 20" xmlns="http://www.w3.org/2000/svg">
<path d="M17.0747 6.26655C17.07 6.24458 17.07 6.22185 17.0747 6.19988C17.0706 6.18065 17.0706 6.16078 17.0747 6.14155V6.06655L17.0247 5.94155C17.0044 5.90744 16.9791 5.87655 16.9497 5.84988L16.8747 5.78322H16.833L13.5497 3.70822L10.4497 1.79155C10.378 1.73466 10.2959 1.69221 10.208 1.66655H10.1414C10.0669 1.65412 9.99084 1.65412 9.91636 1.66655H9.83302C9.73623 1.68796 9.64342 1.72452 9.55802 1.77488L3.33302 5.64988L3.25802 5.70822L3.18302 5.77488L3.09969 5.83322L3.05802 5.88322L3.00802 6.00822V6.08322V6.13322C2.99993 6.18848 2.99993 6.24462 3.00802 6.29988V13.5749C3.00774 13.7165 3.04355 13.8559 3.11208 13.9798C3.18061 14.1037 3.2796 14.2082 3.39969 14.2832L9.64969 18.1499L9.77469 18.1999H9.84136C9.98234 18.2446 10.1337 18.2446 10.2747 18.1999H10.3414L10.4664 18.1499L16.6664 14.3415C16.7865 14.2665 16.8854 14.1621 16.954 14.0381C17.0225 13.9142 17.0583 13.7748 17.058 13.6332V6.35822C17.058 6.35822 17.0747 6.29988 17.0747 6.26655ZM9.99969 3.47488L11.483 4.39155L6.82469 7.27488L5.33302 6.35822L9.99969 3.47488ZM9.16636 15.9749L4.58302 13.1749V7.84988L9.16636 10.6832V15.9749ZM9.99969 9.21655L8.40802 8.25822L13.0664 5.36655L14.6664 6.35822L9.99969 9.21655ZM15.4164 13.1499L10.833 15.9999V10.6832L15.4164 7.84988V13.1499Z" />
</svg>
