<svg width="20" height="20" viewBox="0 0 20 20" xmlns="http://www.w3.org/2000/svg">
<path d="M10.0001 15.8334C10.1649 15.8334 10.326 15.7845 10.4631 15.6929C10.6001 15.6014 10.7069 15.4712 10.77 15.3189C10.8331 15.1667 10.8496 14.9991 10.8174 14.8375C10.7852 14.6758 10.7059 14.5273 10.5893 14.4108C10.4728 14.2942 10.3243 14.2149 10.1627 14.1827C10.001 14.1506 9.83345 14.1671 9.68118 14.2301C9.52891 14.2932 9.39876 14.4 9.30719 14.5371C9.21562 14.6741 9.16675 14.8352 9.16675 15C9.16675 15.2211 9.25455 15.433 9.41083 15.5893C9.56711 15.7456 9.77907 15.8334 10.0001 15.8334ZM14.1667 15.8334C14.3316 15.8334 14.4927 15.7845 14.6297 15.6929C14.7668 15.6014 14.8736 15.4712 14.9366 15.3189C14.9997 15.1667 15.0162 14.9991 14.9841 14.8375C14.9519 14.6758 14.8725 14.5273 14.756 14.4108C14.6395 14.2942 14.491 14.2149 14.3293 14.1827C14.1677 14.1506 14.0001 14.1671 13.8478 14.2301C13.6956 14.2932 13.5654 14.4 13.4739 14.5371C13.3823 14.6741 13.3334 14.8352 13.3334 15C13.3334 15.2211 13.4212 15.433 13.5775 15.5893C13.7338 15.7456 13.9457 15.8334 14.1667 15.8334ZM14.1667 12.5C14.3316 12.5 14.4927 12.4512 14.6297 12.3596C14.7668 12.268 14.8736 12.1379 14.9366 11.9856C14.9997 11.8333 15.0162 11.6658 14.9841 11.5041C14.9519 11.3425 14.8725 11.194 14.756 11.0775C14.6395 10.9609 14.491 10.8815 14.3293 10.8494C14.1677 10.8172 14.0001 10.8337 13.8478 10.8968C13.6956 10.9599 13.5654 11.0667 13.4739 11.2037C13.3823 11.3408 13.3334 11.5019 13.3334 11.6667C13.3334 11.8877 13.4212 12.0997 13.5775 12.256C13.7338 12.4122 13.9457 12.5 14.1667 12.5ZM10.0001 12.5C10.1649 12.5 10.326 12.4512 10.4631 12.3596C10.6001 12.268 10.7069 12.1379 10.77 11.9856C10.8331 11.8333 10.8496 11.6658 10.8174 11.5041C10.7852 11.3425 10.7059 11.194 10.5893 11.0775C10.4728 10.9609 10.3243 10.8815 10.1627 10.8494C10.001 10.8172 9.83345 10.8337 9.68118 10.8968C9.52891 10.9599 9.39876 11.0667 9.30719 11.2037C9.21562 11.3408 9.16675 11.5019 9.16675 11.6667C9.16675 11.8877 9.25455 12.0997 9.41083 12.256C9.56711 12.4122 9.77907 12.5 10.0001 12.5ZM15.8334 2.50004H15.0001V1.66671C15.0001 1.44569 14.9123 1.23373 14.756 1.07745C14.5997 0.921171 14.3878 0.833374 14.1667 0.833374C13.9457 0.833374 13.7338 0.921171 13.5775 1.07745C13.4212 1.23373 13.3334 1.44569 13.3334 1.66671V2.50004H6.66675V1.66671C6.66675 1.44569 6.57895 1.23373 6.42267 1.07745C6.26639 0.921171 6.05443 0.833374 5.83342 0.833374C5.6124 0.833374 5.40044 0.921171 5.24416 1.07745C5.08788 1.23373 5.00008 1.44569 5.00008 1.66671V2.50004H4.16675C3.50371 2.50004 2.86782 2.76343 2.39898 3.23227C1.93014 3.70111 1.66675 4.337 1.66675 5.00004V16.6667C1.66675 17.3297 1.93014 17.9656 2.39898 18.4345C2.86782 18.9033 3.50371 19.1667 4.16675 19.1667H15.8334C16.4965 19.1667 17.1323 18.9033 17.6012 18.4345C18.07 17.9656 18.3334 17.3297 18.3334 16.6667V5.00004C18.3334 4.337 18.07 3.70111 17.6012 3.23227C17.1323 2.76343 16.4965 2.50004 15.8334 2.50004ZM16.6667 16.6667C16.6667 16.8877 16.579 17.0997 16.4227 17.256C16.2664 17.4122 16.0544 17.5 15.8334 17.5H4.16675C3.94573 17.5 3.73377 17.4122 3.57749 17.256C3.42121 17.0997 3.33341 16.8877 3.33341 16.6667V9.16671H16.6667V16.6667ZM16.6667 7.50004H3.33341V5.00004C3.33341 4.77903 3.42121 4.56707 3.57749 4.41078C3.73377 4.2545 3.94573 4.16671 4.16675 4.16671H5.00008V5.00004C5.00008 5.22105 5.08788 5.43302 5.24416 5.5893C5.40044 5.74558 5.6124 5.83337 5.83342 5.83337C6.05443 5.83337 6.26639 5.74558 6.42267 5.5893C6.57895 5.43302 6.66675 5.22105 6.66675 5.00004V4.16671H13.3334V5.00004C13.3334 5.22105 13.4212 5.43302 13.5775 5.5893C13.7338 5.74558 13.9457 5.83337 14.1667 5.83337C14.3878 5.83337 14.5997 5.74558 14.756 5.5893C14.9123 5.43302 15.0001 5.22105 15.0001 5.00004V4.16671H15.8334C16.0544 4.16671 16.2664 4.2545 16.4227 4.41078C16.579 4.56707 16.6667 4.77903 16.6667 5.00004V7.50004ZM5.83342 12.5C5.99823 12.5 6.15935 12.4512 6.29639 12.3596C6.43343 12.268 6.54024 12.1379 6.60331 11.9856C6.66639 11.8333 6.68289 11.6658 6.65074 11.5041C6.61858 11.3425 6.53921 11.194 6.42267 11.0775C6.30613 10.9609 6.15764 10.8815 5.99599 10.8494C5.83434 10.8172 5.66678 10.8337 5.51451 10.8968C5.36224 10.9599 5.23209 11.0667 5.14052 11.2037C5.04896 11.3408 5.00008 11.5019 5.00008 11.6667C5.00008 11.8877 5.08788 12.0997 5.24416 12.256C5.40044 12.4122 5.6124 12.5 5.83342 12.5ZM5.83342 15.8334C5.99823 15.8334 6.15935 15.7845 6.29639 15.6929C6.43343 15.6014 6.54024 15.4712 6.60331 15.3189C6.66639 15.1667 6.68289 14.9991 6.65074 14.8375C6.61858 14.6758 6.53921 14.5273 6.42267 14.4108C6.30613 14.2942 6.15764 14.2149 5.99599 14.1827C5.83434 14.1506 5.66678 14.1671 5.51451 14.2301C5.36224 14.2932 5.23209 14.4 5.14052 14.5371C5.04896 14.6741 5.00008 14.8352 5.00008 15C5.00008 15.2211 5.08788 15.433 5.24416 15.5893C5.40044 15.7456 5.6124 15.8334 5.83342 15.8334Z" />
</svg>
