<svg width="24" height="24" viewBox="0 0 24 24" xmlns="http://www.w3.org/2000/svg">
<path d="M15.71 8.28996C15.617 8.19623 15.5064 8.12183 15.3846 8.07107C15.2627 8.0203 15.132 7.99416 15 7.99416C14.868 7.99416 14.7373 8.0203 14.6154 8.07107C14.4936 8.12183 14.383 8.19623 14.29 8.28996L12 10.59L9.70999 8.28996C9.52168 8.10165 9.26629 7.99587 8.99999 7.99587C8.73369 7.99587 8.47829 8.10165 8.28999 8.28996C8.10168 8.47826 7.9959 8.73366 7.9959 8.99996C7.9959 9.26626 8.10168 9.52165 8.28999 9.70996L10.59 12L8.28999 14.29C8.19626 14.3829 8.12187 14.4935 8.0711 14.6154C8.02033 14.7372 7.99419 14.8679 7.99419 15C7.99419 15.132 8.02033 15.2627 8.0711 15.3845C8.12187 15.5064 8.19626 15.617 8.28999 15.71C8.38295 15.8037 8.49355 15.8781 8.61541 15.9288C8.73727 15.9796 8.86798 16.0058 8.99999 16.0058C9.132 16.0058 9.26271 15.9796 9.38456 15.9288C9.50642 15.8781 9.61702 15.8037 9.70999 15.71L12 13.41L14.29 15.71C14.383 15.8037 14.4936 15.8781 14.6154 15.9288C14.7373 15.9796 14.868 16.0058 15 16.0058C15.132 16.0058 15.2627 15.9796 15.3846 15.9288C15.5064 15.8781 15.617 15.8037 15.71 15.71C15.8037 15.617 15.8781 15.5064 15.9289 15.3845C15.9796 15.2627 16.0058 15.132 16.0058 15C16.0058 14.8679 15.9796 14.7372 15.9289 14.6154C15.8781 14.4935 15.8037 14.3829 15.71 14.29L13.41 12L15.71 9.70996C15.8037 9.61699 15.8781 9.50639 15.9289 9.38453C15.9796 9.26267 16.0058 9.13197 16.0058 8.99996C16.0058 8.86795 15.9796 8.73724 15.9289 8.61538C15.8781 8.49352 15.8037 8.38292 15.71 8.28996ZM19.07 4.92996C18.1475 3.97486 17.0441 3.21303 15.824 2.68894C14.604 2.16485 13.2918 1.88899 11.964 1.87745C10.6362 1.86591 9.31941 2.11893 8.09045 2.62174C6.86148 3.12455 5.74497 3.86708 4.80604 4.80601C3.86711 5.74493 3.12458 6.86145 2.62177 8.09042C2.11896 9.31938 1.86595 10.6362 1.87748 11.964C1.88902 13.2918 2.16488 14.604 2.68897 15.824C3.21306 17.044 3.97489 18.1475 4.92999 19.07C5.85246 20.0251 6.9559 20.7869 8.17594 21.311C9.39598 21.8351 10.7082 22.1109 12.036 22.1225C13.3638 22.134 14.6806 21.881 15.9095 21.3782C17.1385 20.8754 18.255 20.1328 19.1939 19.1939C20.1329 18.255 20.8754 17.1385 21.3782 15.9095C21.881 14.6805 22.134 13.3637 22.1225 12.0359C22.111 10.7082 21.8351 9.39595 21.311 8.17591C20.7869 6.95587 20.0251 5.85243 19.07 4.92996ZM17.66 17.66C16.352 18.9694 14.6305 19.7848 12.7888 19.9673C10.947 20.1497 9.09899 19.688 7.55951 18.6607C6.02003 17.6334 4.88435 16.1042 4.34596 14.3334C3.80758 12.5627 3.89979 10.6601 4.6069 8.94974C5.31401 7.23938 6.59226 5.82711 8.22388 4.95352C9.8555 4.07993 11.7395 3.79909 13.555 4.15883C15.3705 4.51857 17.005 5.49665 18.1802 6.92642C19.3554 8.35619 19.9985 10.1492 20 12C20.0036 13.0512 19.7986 14.0928 19.3969 15.0643C18.9953 16.0359 18.4049 16.9181 17.66 17.66Z" />
</svg>
