<svg width="16" height="16" viewBox="0 0 16 16" fill="none" xmlns="http://www.w3.org/2000/svg">
<g id="Icons / comment">
<path id="Vector" d="M12.6667 1.33301H3.33334C2.8029 1.33301 2.2942 1.54372 1.91912 1.91879C1.54405 2.29387 1.33334 2.80257 1.33334 3.33301V9.99967C1.33334 10.5301 1.54405 11.0388 1.91912 11.4139C2.2942 11.789 2.8029 11.9997 3.33334 11.9997H11.06L13.5267 14.473C13.589 14.5348 13.6628 14.5837 13.7441 14.6169C13.8253 14.65 13.9123 14.6668 14 14.6663C14.0875 14.6686 14.1742 14.6503 14.2533 14.613C14.3751 14.563 14.4793 14.4781 14.5529 14.3689C14.6264 14.2598 14.666 14.1313 14.6667 13.9997V3.33301C14.6667 2.80257 14.456 2.29387 14.0809 1.91879C13.7058 1.54372 13.1971 1.33301 12.6667 1.33301ZM13.3333 12.393L11.8067 10.8597C11.7444 10.7979 11.6705 10.749 11.5893 10.7158C11.508 10.6827 11.4211 10.6658 11.3333 10.6663H3.33334C3.15652 10.6663 2.98696 10.5961 2.86193 10.4711C2.73691 10.3461 2.66667 10.1765 2.66667 9.99967V3.33301C2.66667 3.1562 2.73691 2.98663 2.86193 2.8616C2.98696 2.73658 3.15652 2.66634 3.33334 2.66634H12.6667C12.8435 2.66634 13.0131 2.73658 13.1381 2.8616C13.2631 2.98663 13.3333 3.1562 13.3333 3.33301V12.393Z" fill="#0E0F11"/>
</g>
</svg>
