<svg width="30" height="30" viewBox="0 0 30 30" fill="none" xmlns="http://www.w3.org/2000/svg">
<g clip-path="url(#clip0_244_12698)">
<path fill-rule="evenodd" clip-rule="evenodd" d="M8.75 7.25C8.02065 7.25 7.32118 7.53973 6.80546 8.05546C6.28973 8.57118 6 9.27065 6 10V23.8358L9.29289 20.5429C9.48043 20.3554 9.73478 20.25 10 20.25H21.25C21.9793 20.25 22.6788 19.9603 23.1945 19.4445C23.7103 18.9288 24 18.2293 24 17.5V10C24 9.27065 23.7103 8.57118 23.1945 8.05546C22.6788 7.53973 21.9793 7.25 21.25 7.25H8.75ZM5.39124 6.64124C6.28204 5.75045 7.49022 5.25 8.75 5.25H21.25C22.5098 5.25 23.718 5.75045 24.6088 6.64124C25.4996 7.53204 26 8.74022 26 10V17.5C26 18.7598 25.4996 19.968 24.6088 20.8588C23.718 21.7496 22.5098 22.25 21.25 22.25H10.4142L5.70711 26.9571C5.42111 27.2431 4.99099 27.3287 4.61732 27.1739C4.24364 27.0191 4 26.6545 4 26.25V10C4 8.74022 4.50045 7.53204 5.39124 6.64124Z" fill="#8891A0"/>
<path fill-rule="evenodd" clip-rule="evenodd" d="M11.5 13.75C11.5 13.1977 11.9477 12.75 12.5 12.75H17.5C18.0523 12.75 18.5 13.1977 18.5 13.75C18.5 14.3023 18.0523 14.75 17.5 14.75H12.5C11.9477 14.75 11.5 14.3023 11.5 13.75Z" fill="#8891A0"/>
<path fill-rule="evenodd" clip-rule="evenodd" d="M15 10.25C15.5523 10.25 16 10.6977 16 11.25V16.25C16 16.8023 15.5523 17.25 15 17.25C14.4477 17.25 14 16.8023 14 16.25V11.25C14 10.6977 14.4477 10.25 15 10.25Z" fill="#8891A0"/>
</g>
<defs>
<clipPath id="clip0_244_12698">
<rect width="30" height="30" fill="white"/>
</clipPath>
</defs>
</svg>
