<svg width="20" height="20" viewBox="0 0 20 20" xmlns="http://www.w3.org/2000/svg">
<path d="M13.3333 16.6667H6.66667C6.00363 16.6667 5.36774 16.4033 4.8989 15.9345C4.43006 15.4656 4.16667 14.8297 4.16667 14.1667V5.83335C4.16667 5.61234 4.07887 5.40038 3.92259 5.2441C3.76631 5.08782 3.55435 5.00002 3.33333 5.00002C3.11232 5.00002 2.90036 5.08782 2.74408 5.2441C2.5878 5.40038 2.5 5.61234 2.5 5.83335V14.1667C2.5 15.2718 2.93899 16.3316 3.72039 17.113C4.50179 17.8944 5.5616 18.3334 6.66667 18.3334H13.3333C13.5543 18.3334 13.7663 18.2456 13.9226 18.0893C14.0789 17.933 14.1667 17.721 14.1667 17.5C14.1667 17.279 14.0789 17.067 13.9226 16.9108C13.7663 16.7545 13.5543 16.6667 13.3333 16.6667ZM17.5 7.45002C17.4913 7.37347 17.4746 7.29805 17.45 7.22502V7.15002C17.4099 7.06434 17.3565 6.98557 17.2917 6.91669L12.2917 1.91669C12.2228 1.85187 12.144 1.79842 12.0583 1.75835H11.9833L11.7167 1.66669H8.33333C7.67029 1.66669 7.03441 1.93008 6.56557 2.39892C6.09673 2.86776 5.83333 3.50365 5.83333 4.16669V12.5C5.83333 13.1631 6.09673 13.7989 6.56557 14.2678C7.03441 14.7366 7.67029 15 8.33333 15H15C15.663 15 16.2989 14.7366 16.7678 14.2678C17.2366 13.7989 17.5 13.1631 17.5 12.5V7.50002C17.5 7.50002 17.5 7.50002 17.5 7.45002ZM12.5 4.50835L14.6583 6.66669H13.3333C13.1123 6.66669 12.9004 6.57889 12.7441 6.42261C12.5878 6.26633 12.5 6.05437 12.5 5.83335V4.50835ZM15.8333 12.5C15.8333 12.721 15.7455 12.933 15.5893 13.0893C15.433 13.2456 15.221 13.3334 15 13.3334H8.33333C8.11232 13.3334 7.90036 13.2456 7.74408 13.0893C7.5878 12.933 7.5 12.721 7.5 12.5V4.16669C7.5 3.94567 7.5878 3.73371 7.74408 3.57743C7.90036 3.42115 8.11232 3.33335 8.33333 3.33335H10.8333V5.83335C10.8333 6.4964 11.0967 7.13228 11.5656 7.60112C12.0344 8.06996 12.6703 8.33335 13.3333 8.33335H15.8333V12.5Z" />
</svg>
