<svg width="16" height="16" viewBox="0 0 16 16" xmlns="http://www.w3.org/2000/svg">
<path fill-rule="evenodd" clip-rule="evenodd" d="M6.66732 2.66683C4.45818 2.66683 2.66732 4.45769 2.66732 6.66683C2.66732 8.87597 4.45818 10.6668 6.66732 10.6668C8.87646 10.6668 10.6673 8.87597 10.6673 6.66683C10.6673 4.45769 8.87646 2.66683 6.66732 2.66683ZM1.33398 6.66683C1.33398 3.72131 3.7218 1.3335 6.66732 1.3335C9.61284 1.3335 12.0007 3.72131 12.0007 6.66683C12.0007 9.61235 9.61284 12.0002 6.66732 12.0002C3.7218 12.0002 1.33398 9.61235 1.33398 6.66683Z" />
<path fill-rule="evenodd" clip-rule="evenodd" d="M9.52925 9.52876C9.7896 9.26841 10.2117 9.26841 10.4721 9.52876L14.4721 13.5288C14.7324 13.7891 14.7324 14.2112 14.4721 14.4716C14.2117 14.7319 13.7896 14.7319 13.5292 14.4716L9.52925 10.4716C9.2689 10.2112 9.2689 9.78911 9.52925 9.52876Z" />
<path fill-rule="evenodd" clip-rule="evenodd" d="M5.15417 4.48816C5.46673 4.17559 5.89066 4 6.33268 4H7.99935C8.36754 4 8.66602 4.29848 8.66602 4.66667C8.66602 5.03486 8.36754 5.33333 7.99935 5.33333H6.33268C6.24428 5.33333 6.15949 5.36845 6.09698 5.43096C6.03447 5.49348 5.99935 5.57826 5.99935 5.66667C5.99935 5.75507 6.03447 5.83986 6.09698 5.90237C6.15949 5.96488 6.24428 6 6.33268 6H6.99935C7.44138 6 7.8653 6.17559 8.17786 6.48815C8.49042 6.80072 8.66602 7.22464 8.66602 7.66667C8.66602 8.10869 8.49042 8.53262 8.17786 8.84518C7.8653 9.15774 7.44138 9.33333 6.99935 9.33333H5.33268C4.96449 9.33333 4.66602 9.03485 4.66602 8.66667C4.66602 8.29848 4.96449 8 5.33268 8H6.99935C7.08776 8 7.17254 7.96488 7.23505 7.90237C7.29756 7.83986 7.33268 7.75507 7.33268 7.66667C7.33268 7.57826 7.29756 7.49348 7.23505 7.43096C7.17254 7.36845 7.08776 7.33333 6.99935 7.33333H6.33268C5.89066 7.33333 5.46673 7.15774 5.15417 6.84518C4.84161 6.53262 4.66602 6.10869 4.66602 5.66667C4.66602 5.22464 4.84161 4.80072 5.15417 4.48816Z" />
<path fill-rule="evenodd" clip-rule="evenodd" d="M6.66667 3.3335C7.03486 3.3335 7.33333 3.63197 7.33333 4.00016V4.66683C7.33333 5.03502 7.03486 5.3335 6.66667 5.3335C6.29848 5.3335 6 5.03502 6 4.66683V4.00016C6 3.63197 6.29848 3.3335 6.66667 3.3335ZM6.66667 8.00016C7.03486 8.00016 7.33333 8.29864 7.33333 8.66683V9.3335C7.33333 9.70169 7.03486 10.0002 6.66667 10.0002C6.29848 10.0002 6 9.70169 6 9.3335V8.66683C6 8.29864 6.29848 8.00016 6.66667 8.00016Z" />
</svg>
