<svg width="24" height="24" viewBox="0 0 24 24" xmlns="http://www.w3.org/2000/svg">
<path fill-rule="evenodd" clip-rule="evenodd" d="M5 9V15H19V9H5ZM3 8.8C3 7.60919 4.1152 7 5 7H19C19.8848 7 21 7.60919 21 8.8V15.2C21 16.3908 19.8848 17 19 17H5C4.1152 17 3 16.3908 3 15.2V8.8Z" />
<path fill-rule="evenodd" clip-rule="evenodd" d="M3 4C3 3.44772 3.44772 3 4 3H20C20.5523 3 21 3.44772 21 4C21 4.55228 20.5523 5 20 5H4C3.44772 5 3 4.55228 3 4Z" />
<path fill-rule="evenodd" clip-rule="evenodd" d="M3 20C3 19.4477 3.44772 19 4 19H20C20.5523 19 21 19.4477 21 20C21 20.5523 20.5523 21 20 21H4C3.44772 21 3 20.5523 3 20Z" />
</svg>
