<svg width="16" height="16" viewBox="0 0 16 16" xmlns="http://www.w3.org/2000/svg">
<path fill-rule="evenodd" clip-rule="evenodd" d="M2.75065 2.66683C2.70463 2.66683 2.66732 2.70414 2.66732 2.75016V13.2502C2.66732 13.2962 2.70463 13.3335 2.75065 13.3335H13.2507C13.2967 13.3335 13.334 13.2962 13.334 13.2502V2.75016C13.334 2.70414 13.2967 2.66683 13.2507 2.66683H2.75065ZM1.33398 2.75016C1.33398 1.96776 1.96825 1.3335 2.75065 1.3335H13.2507C14.0331 1.3335 14.6673 1.96776 14.6673 2.75016V13.2502C14.6673 14.0326 14.0331 14.6668 13.2507 14.6668H2.75065C1.96825 14.6668 1.33398 14.0326 1.33398 13.2502V2.75016Z" />
<path fill-rule="evenodd" clip-rule="evenodd" d="M1.33398 4.66667C1.33398 4.29848 1.63246 4 2.00065 4H14.0007C14.3688 4 14.6673 4.29848 14.6673 4.66667C14.6673 5.03486 14.3688 5.33333 14.0007 5.33333H2.00065C1.63246 5.33333 1.33398 5.03486 1.33398 4.66667Z" />
<path fill-rule="evenodd" clip-rule="evenodd" d="M5.33268 1.3335C5.70087 1.3335 5.99935 1.63197 5.99935 2.00016V4.66683C5.99935 5.03502 5.70087 5.3335 5.33268 5.3335C4.96449 5.3335 4.66602 5.03502 4.66602 4.66683V2.00016C4.66602 1.63197 4.96449 1.3335 5.33268 1.3335Z" />
<path d="M6.03333 10.792C6.31591 10.792 6.48816 10.5351 6.48816 10.2782C6.48816 10.0301 6.37781 9.82339 6.10061 9.73775L4.59081 9.2682V9.23572L6.10061 8.76322C6.37781 8.67758 6.48816 8.49744 6.48816 8.23756C6.48816 7.98064 6.31591 7.73258 6.03333 7.73258C5.88531 7.73258 5.79381 7.76211 5.6431 7.82413L3.84263 8.55355C3.49815 8.69234 3.33398 8.91678 3.33398 9.2623C3.33398 9.61076 3.49546 9.84111 3.84263 9.9799L5.6431 10.7005C5.79381 10.7595 5.88531 10.792 6.03333 10.792Z" />
<path d="M7.44087 11.9998C7.72614 11.9998 7.88224 11.864 7.96566 11.548L9.04756 7.41364C9.0637 7.34867 9.07447 7.28075 9.07447 7.19807C9.07447 6.87913 8.86993 6.6665 8.56044 6.6665C8.28862 6.6665 8.12983 6.81416 8.04102 7.14491L6.95913 11.2822C6.94298 11.3472 6.93222 11.4151 6.93222 11.4978C6.93222 11.7724 7.10715 11.9998 7.44087 11.9998Z" />
<path d="M9.96797 10.792C10.116 10.792 10.2075 10.7595 10.3582 10.7005L12.1587 9.9799C12.5058 9.84111 12.6673 9.61076 12.6673 9.2623C12.6673 8.91678 12.5032 8.69234 12.1587 8.55355L10.3582 7.82413C10.2075 7.76211 10.116 7.73258 9.96797 7.73258C9.68539 7.73258 9.51315 7.98064 9.51315 8.23756C9.51315 8.49744 9.62349 8.67758 9.90069 8.76322L11.4105 9.23572V9.2682L9.90069 9.73775C9.62349 9.82339 9.51315 10.0301 9.51315 10.2782C9.51315 10.5351 9.68539 10.792 9.96797 10.792Z" />
</svg>
