<svg width="16" height="16" viewBox="0 0 16 16" xmlns="http://www.w3.org/2000/svg">
<path d="M14.6126 7.74679C14.5809 7.66496 14.5333 7.59019 14.4726 7.52679L11.8059 4.86012C11.7438 4.79796 11.67 4.74866 11.5888 4.71502C11.5076 4.68138 11.4205 4.66406 11.3326 4.66406C11.1551 4.66406 10.9848 4.73459 10.8593 4.86012C10.7337 4.98566 10.6632 5.15592 10.6632 5.33346C10.6632 5.51099 10.7337 5.68125 10.8593 5.80679L12.3926 7.33346H3.60595L5.13928 5.80679C5.20144 5.74463 5.25075 5.67084 5.28439 5.58962C5.31803 5.50841 5.33534 5.42136 5.33534 5.33346C5.33534 5.24555 5.31803 5.15851 5.28439 5.07729C5.25075 4.99608 5.20144 4.92228 5.13928 4.86012C5.07712 4.79796 5.00333 4.74866 4.92211 4.71502C4.8409 4.68138 4.75385 4.66406 4.66595 4.66406C4.57804 4.66406 4.491 4.68138 4.40978 4.71502C4.32857 4.74866 4.25477 4.79796 4.19261 4.86012L1.52595 7.52679C1.46525 7.59019 1.41768 7.66496 1.38595 7.74679C1.31927 7.9091 1.31927 8.09115 1.38595 8.25346C1.41768 8.33529 1.46525 8.41005 1.52595 8.47346L4.19261 11.1401C4.25459 11.2026 4.32832 11.2522 4.40956 11.2861C4.4908 11.3199 4.57794 11.3373 4.66595 11.3373C4.75395 11.3373 4.84109 11.3199 4.92233 11.2861C5.00357 11.2522 5.0773 11.2026 5.13928 11.1401C5.20177 11.0781 5.25136 11.0044 5.28521 10.9232C5.31905 10.8419 5.33648 10.7548 5.33648 10.6668C5.33648 10.5788 5.31905 10.4916 5.28521 10.4104C5.25136 10.3292 5.20177 10.2554 5.13928 10.1935L3.60595 8.66679H12.3926L10.8593 10.1935C10.7968 10.2554 10.7472 10.3292 10.7134 10.4104C10.6795 10.4916 10.6621 10.5788 10.6621 10.6668C10.6621 10.7548 10.6795 10.8419 10.7134 10.9232C10.7472 11.0044 10.7968 11.0781 10.8593 11.1401C10.9213 11.2026 10.995 11.2522 11.0762 11.2861C11.1575 11.3199 11.2446 11.3373 11.3326 11.3373C11.4206 11.3373 11.5078 11.3199 11.589 11.2861C11.6702 11.2522 11.744 11.2026 11.8059 11.1401L14.4726 8.47346C14.5333 8.41005 14.5809 8.33529 14.6126 8.25346C14.6793 8.09115 14.6793 7.9091 14.6126 7.74679Z" />
</svg>
