<svg width="16" height="16" viewBox="0 0 16 16" fill="none" xmlns="http://www.w3.org/2000/svg">
<g id="Frame" clip-path="url(#clip0_85_17343)">
<path id="Vector (Stroke)" fill-rule="evenodd" clip-rule="evenodd" d="M6.52686 6.52719C6.91756 6.13649 7.44747 5.91699 8 5.91699C8.55254 5.91699 9.08244 6.13649 9.47314 6.52719C9.86384 6.91789 10.0833 7.44779 10.0833 8.00033C10.0833 8.55286 9.86384 9.08276 9.47314 9.47346C9.08244 9.86416 8.55254 10.0837 8 10.0837C7.44747 10.0837 6.91756 9.86416 6.52686 9.47346C6.13616 9.08276 5.91667 8.55286 5.91667 8.00033C5.91667 7.44779 6.13616 6.91789 6.52686 6.52719ZM8 7.41699C7.84529 7.41699 7.69692 7.47845 7.58752 7.58785C7.47813 7.69724 7.41667 7.84562 7.41667 8.00033C7.41667 8.15503 7.47813 8.30341 7.58752 8.4128C7.69692 8.5222 7.84529 8.58366 8 8.58366C8.15471 8.58366 8.30308 8.5222 8.41248 8.4128C8.52188 8.30341 8.58333 8.15503 8.58333 8.00033C8.58333 7.84562 8.52188 7.69724 8.41248 7.58785C8.30308 7.47845 8.15471 7.41699 8 7.41699Z" fill="black"/>
<path id="Vector (Stroke)_2" fill-rule="evenodd" clip-rule="evenodd" d="M2.8839 8C4.34236 10.2459 6.05001 11.25 8 11.25C9.94999 11.25 11.6576 10.2459 13.1161 8C11.6576 5.75413 9.94999 4.75 8 4.75C6.05001 4.75 4.34236 5.75413 2.8839 8ZM1.35688 7.61413C3.04664 4.79786 5.25833 3.25 8 3.25C10.7417 3.25 12.9534 4.79786 14.6431 7.61413C14.7856 7.85164 14.7856 8.14836 14.6431 8.38587C12.9534 11.2021 10.7417 12.75 8 12.75C5.25833 12.75 3.04664 11.2021 1.35688 8.38587C1.21437 8.14836 1.21437 7.85164 1.35688 7.61413Z" fill="black"/>
</g>
<defs>
<clipPath id="clip0_85_17343">
<rect width="16" height="16" fill="white"/>
</clipPath>
</defs>
</svg>
