<svg width="20" height="20" viewBox="0 0 20 20" fill="none" xmlns="http://www.w3.org/2000/svg">
<path fill-rule="evenodd" clip-rule="evenodd" d="M11.6666 1.66675C12.1268 1.66675 12.4999 2.03984 12.4999 2.50008V5.83342H15.8333C16.2935 5.83342 16.6666 6.20651 16.6666 6.66675C16.6666 7.12699 16.2935 7.50008 15.8333 7.50008H12.4999C12.0579 7.50008 11.634 7.32449 11.3214 7.01193C11.0088 6.69937 10.8333 6.27544 10.8333 5.83342V2.50008C10.8333 2.03984 11.2063 1.66675 11.6666 1.66675Z" fill="#B9C0CA"/>
<path fill-rule="evenodd" clip-rule="evenodd" d="M5.83325 3.33341C5.61224 3.33341 5.40028 3.42121 5.244 3.57749C5.08772 3.73377 4.99992 3.94573 4.99992 4.16675V15.8334C4.99992 16.0544 5.08772 16.2664 5.244 16.4227C5.40028 16.579 5.61224 16.6667 5.83325 16.6667H14.1666C14.3876 16.6667 14.5996 16.579 14.7558 16.4227C14.9121 16.2664 14.9999 16.0544 14.9999 15.8334V7.01193L11.3214 3.33341H5.83325ZM4.06549 2.39898C4.53433 1.93014 5.17021 1.66675 5.83325 1.66675H11.6666C11.8876 1.66675 12.0996 1.75455 12.2558 1.91083L16.4225 6.07749C16.5788 6.23377 16.6666 6.44573 16.6666 6.66675V15.8334C16.6666 16.4965 16.4032 17.1323 15.9344 17.6012C15.4655 18.07 14.8296 18.3334 14.1666 18.3334H5.83325C5.17021 18.3334 4.53433 18.07 4.06549 17.6012C3.59664 17.1323 3.33325 16.4965 3.33325 15.8334V4.16675C3.33325 3.50371 3.59664 2.86782 4.06549 2.39898Z" fill="#B9C0CA"/>
<path fill-rule="evenodd" clip-rule="evenodd" d="M6.66675 7.50008C6.66675 7.03984 7.03984 6.66675 7.50008 6.66675H8.33342C8.79365 6.66675 9.16675 7.03984 9.16675 7.50008C9.16675 7.96032 8.79365 8.33341 8.33342 8.33341H7.50008C7.03984 8.33341 6.66675 7.96032 6.66675 7.50008Z" fill="#B9C0CA"/>
<path fill-rule="evenodd" clip-rule="evenodd" d="M6.66675 10.8333C6.66675 10.3731 7.03984 10 7.50008 10H12.5001C12.9603 10 13.3334 10.3731 13.3334 10.8333C13.3334 11.2936 12.9603 11.6667 12.5001 11.6667H7.50008C7.03984 11.6667 6.66675 11.2936 6.66675 10.8333Z" fill="#B9C0CA"/>
<path fill-rule="evenodd" clip-rule="evenodd" d="M6.66675 14.1666C6.66675 13.7063 7.03984 13.3333 7.50008 13.3333H12.5001C12.9603 13.3333 13.3334 13.7063 13.3334 14.1666C13.3334 14.6268 12.9603 14.9999 12.5001 14.9999H7.50008C7.03984 14.9999 6.66675 14.6268 6.66675 14.1666Z" fill="#B9C0CA"/>
</svg>

