<svg width="16" height="16" viewBox="0 0 16 16"  xmlns="http://www.w3.org/2000/svg">
<path fill-rule="evenodd" clip-rule="evenodd" d="M8.65199 3.15761C8.15559 3.45545 7.99935 3.77405 7.99935 4.00016C7.99935 4.22627 8.15559 4.54487 8.65199 4.84271C9.13512 5.13259 9.84559 5.3335 10.666 5.3335C11.4864 5.3335 12.1969 5.13259 12.68 4.84271C13.1764 4.54487 13.3327 4.22627 13.3327 4.00016C13.3327 3.77405 13.1764 3.45545 12.68 3.15761C12.1969 2.86773 11.4864 2.66683 10.666 2.66683C9.84559 2.66683 9.13512 2.86773 8.65199 3.15761ZM7.966 2.01429C8.68929 1.58031 9.64549 1.3335 10.666 1.3335C11.6865 1.3335 12.6427 1.58031 13.366 2.01429C14.0761 2.4403 14.666 3.1217 14.666 4.00016C14.666 4.87862 14.0761 5.56002 13.366 5.98604C12.6427 6.42002 11.6865 6.66683 10.666 6.66683C9.64549 6.66683 8.68929 6.42002 7.966 5.98604C7.25597 5.56002 6.66602 4.87862 6.66602 4.00016C6.66602 3.1217 7.25597 2.4403 7.966 2.01429Z" />
<path fill-rule="evenodd" clip-rule="evenodd" d="M7.33268 3.3335C7.70087 3.3335 7.99935 3.63197 7.99935 4.00016V6.66683C7.99935 6.89295 8.15561 7.21156 8.65207 7.5094C9.13525 7.79928 9.84574 8.00016 10.666 8.00016C11.4863 8.00016 12.1968 7.79928 12.68 7.5094C13.1764 7.21156 13.3327 6.89295 13.3327 6.66683V4.00016C13.3327 3.63197 13.6312 3.3335 13.9993 3.3335C14.3675 3.3335 14.666 3.63197 14.666 4.00016V6.66683C14.666 7.54537 14.0759 8.22677 13.3659 8.65276C12.6426 9.08671 11.6864 9.3335 10.666 9.3335C9.64563 9.3335 8.68945 9.08671 7.96613 8.65276C7.25608 8.22677 6.66602 7.54537 6.66602 6.66683V4.00016C6.66602 3.63197 6.96449 3.3335 7.33268 3.3335Z" />
<path fill-rule="evenodd" clip-rule="evenodd" d="M7.33268 6C7.70087 6 7.99935 6.29848 7.99935 6.66667V9.33333C7.99935 9.55946 8.15561 9.87806 8.65207 10.1759C9.13525 10.4658 9.84574 10.6667 10.666 10.6667C11.4863 10.6667 12.1968 10.4658 12.68 10.1759C13.1764 9.87806 13.3327 9.55946 13.3327 9.33333V6.66667C13.3327 6.29848 13.6312 6 13.9993 6C14.3675 6 14.666 6.29848 14.666 6.66667V9.33333C14.666 10.2119 14.0759 10.8933 13.3659 11.3193C12.6426 11.7532 11.6864 12 10.666 12C9.64563 12 8.68945 11.7532 7.96613 11.3193C7.25608 10.8933 6.66602 10.2119 6.66602 9.33333V6.66667C6.66602 6.29848 6.96449 6 7.33268 6Z" />
<path fill-rule="evenodd" clip-rule="evenodd" d="M7.33268 8.6665C7.70087 8.6665 7.99935 8.96498 7.99935 9.33317V11.9998C7.99935 12.226 8.15561 12.5446 8.65207 12.8424C9.13525 13.1323 9.84574 13.3332 10.666 13.3332C11.4863 13.3332 12.1968 13.1323 12.68 12.8424C13.1764 12.5446 13.3327 12.226 13.3327 11.9998V9.33317C13.3327 8.96498 13.6312 8.6665 13.9993 8.6665C14.3675 8.6665 14.666 8.96498 14.666 9.33317V11.9998C14.666 12.8784 14.0759 13.5598 13.3659 13.9858C12.6426 14.4197 11.6864 14.6665 10.666 14.6665C9.64563 14.6665 8.68945 14.4197 7.96613 13.9858C7.25608 13.5598 6.66602 12.8784 6.66602 11.9998V9.33317C6.66602 8.96498 6.96449 8.6665 7.33268 8.6665Z" />
<path fill-rule="evenodd" clip-rule="evenodd" d="M1.82214 5.82165C2.1347 5.50909 2.55862 5.3335 3.00065 5.3335H4.66732C5.03551 5.3335 5.33398 5.63197 5.33398 6.00016C5.33398 6.36835 5.03551 6.66683 4.66732 6.66683H3.00065C2.91225 6.66683 2.82746 6.70195 2.76495 6.76446C2.70244 6.82697 2.66732 6.91176 2.66732 7.00016C2.66732 7.08857 2.70244 7.17335 2.76495 7.23587C2.82746 7.29838 2.91225 7.3335 3.00065 7.3335H3.66732C4.10934 7.3335 4.53327 7.50909 4.84583 7.82165C5.15839 8.13421 5.33398 8.55814 5.33398 9.00016C5.33398 9.44219 5.15839 9.86611 4.84583 10.1787C4.53327 10.4912 4.10934 10.6668 3.66732 10.6668H2.00065C1.63246 10.6668 1.33398 10.3684 1.33398 10.0002C1.33398 9.63197 1.63246 9.3335 2.00065 9.3335H3.66732C3.75572 9.3335 3.84051 9.29838 3.90302 9.23587C3.96553 9.17335 4.00065 9.08857 4.00065 9.00016C4.00065 8.91176 3.96553 8.82697 3.90302 8.76446C3.84051 8.70195 3.75572 8.66683 3.66732 8.66683H3.00065C2.55862 8.66683 2.1347 8.49123 1.82214 8.17867C1.50958 7.86611 1.33398 7.44219 1.33398 7.00016C1.33398 6.55814 1.50958 6.13421 1.82214 5.82165Z" />
<path fill-rule="evenodd" clip-rule="evenodd" d="M3.33268 4.6665C3.70087 4.6665 3.99935 4.96498 3.99935 5.33317V5.99984C3.99935 6.36803 3.70087 6.6665 3.33268 6.6665C2.96449 6.6665 2.66602 6.36803 2.66602 5.99984V5.33317C2.66602 4.96498 2.96449 4.6665 3.33268 4.6665ZM3.33268 9.33317C3.70087 9.33317 3.99935 9.63165 3.99935 9.99984V10.6665C3.99935 11.0347 3.70087 11.3332 3.33268 11.3332C2.96449 11.3332 2.66602 11.0347 2.66602 10.6665V9.99984C2.66602 9.63165 2.96449 9.33317 3.33268 9.33317Z" />
</svg>
