<svg width="20" height="20" viewBox="0 0 20 20" xmlns="http://www.w3.org/2000/svg">
<path d="M8.8333 4.69183C8.61229 4.73161 8.41613 4.85756 8.28798 5.04197C8.15983 5.22638 8.11019 5.45415 8.14997 5.67516C8.18975 5.89618 8.3157 6.09233 8.50011 6.22048C8.68453 6.34863 8.91229 6.39828 9.1333 6.3585C9.40859 6.31094 9.68728 6.28585 9.96664 6.2835C11.2927 6.2835 12.5645 6.81028 13.5022 7.74796C14.4399 8.68564 14.9666 9.95741 14.9666 11.2835C14.9643 11.5628 14.9392 11.8415 14.8916 12.1168C14.8527 12.3333 14.9009 12.5564 15.0258 12.7375C15.1507 12.9186 15.3421 13.043 15.5583 13.0835H15.7083C15.9056 13.0867 16.0977 13.0198 16.2503 12.8947C16.4029 12.7695 16.5061 12.5943 16.5416 12.4002C16.619 12.0216 16.6609 11.6366 16.6666 11.2502C16.6628 9.76664 16.1643 8.32677 15.25 7.1585L16.0083 6.4085C16.1652 6.25158 16.2534 6.03875 16.2534 5.81683C16.2534 5.59491 16.1652 5.38208 16.0083 5.22516C15.8514 5.06824 15.6386 4.98009 15.4166 4.98009C15.1947 4.98009 14.9819 5.06824 14.825 5.22516L14.075 5.9835C12.909 5.07864 11.4758 4.58624 9.99997 4.5835C9.60854 4.58275 9.21791 4.61902 8.8333 4.69183ZM8.3333 3.75016H11.6666C11.8877 3.75016 12.0996 3.66237 12.2559 3.50609C12.4122 3.3498 12.5 3.13784 12.5 2.91683C12.5 2.69582 12.4122 2.48385 12.2559 2.32757C12.0996 2.17129 11.8877 2.0835 11.6666 2.0835H8.3333C8.11229 2.0835 7.90033 2.17129 7.74405 2.32757C7.58777 2.48385 7.49997 2.69582 7.49997 2.91683C7.49997 3.13784 7.58777 3.3498 7.74405 3.50609C7.90033 3.66237 8.11229 3.75016 8.3333 3.75016ZM11.2416 11.3168C11.2416 11.3168 11.2416 11.2752 11.2416 11.2502C11.2416 11.2252 11.2416 11.2085 11.2416 11.1835L12.3583 10.0752C12.436 9.99746 12.4976 9.90522 12.5397 9.8037C12.5817 9.70219 12.6034 9.59338 12.6034 9.4835C12.6034 9.37361 12.5817 9.26481 12.5397 9.16329C12.4976 9.06177 12.436 8.96953 12.3583 8.89183C12.2806 8.81413 12.1884 8.7525 12.0868 8.71045C11.9853 8.6684 11.8765 8.64675 11.7666 8.64675C11.6568 8.64675 11.5479 8.6684 11.4464 8.71045C11.3449 8.7525 11.2527 8.81413 11.175 8.89183L10.0666 10.0002H9.9333L4.7583 4.82516C4.60138 4.66824 4.38856 4.58009 4.16664 4.58009C3.94472 4.58009 3.73189 4.66824 3.57497 4.82516C3.41805 4.98208 3.3299 5.19491 3.3299 5.41683C3.3299 5.63875 3.41805 5.85158 3.57497 6.0085L3.97497 6.4085L4.7333 7.16683C3.74453 8.44983 3.25669 10.0489 3.36093 11.6654C3.46517 13.2818 4.15436 14.805 5.29973 15.9504C6.44511 17.0958 7.96831 17.785 9.58475 17.8892C11.2012 17.9934 12.8003 17.5056 14.0833 16.5168L15.2416 17.6752C15.3191 17.7533 15.4113 17.8153 15.5128 17.8576C15.6144 17.8999 15.7233 17.9217 15.8333 17.9217C15.9433 17.9217 16.0522 17.8999 16.1538 17.8576C16.2553 17.8153 16.3475 17.7533 16.425 17.6752C16.5031 17.5977 16.5651 17.5055 16.6074 17.404C16.6497 17.3024 16.6715 17.1935 16.6715 17.0835C16.6715 16.9735 16.6497 16.8646 16.6074 16.763C16.5651 16.6615 16.5031 16.5693 16.425 16.4918L11.2416 11.3168ZM9.99997 16.2502C9.07902 16.2527 8.17525 16.0009 7.38835 15.5224C6.60145 15.0439 5.96199 14.3574 5.5405 13.5385C5.11901 12.7197 4.93186 11.8003 4.99971 10.8819C5.06755 9.9634 5.38774 9.08153 5.92497 8.3335L8.7583 11.1585C8.7583 11.1585 8.7583 11.2002 8.7583 11.2252C8.75499 11.3907 8.7846 11.5553 8.84541 11.7093C8.90622 11.8633 8.99702 12.0037 9.11254 12.1223C9.22806 12.2409 9.366 12.3354 9.51834 12.4003C9.67068 12.4651 9.8344 12.4991 9.99997 12.5002H10.0666L12.8916 15.3335C12.0459 15.9311 11.0355 16.2514 9.99997 16.2502Z" />
</svg>
