<svg width="21" height="20" viewBox="0 0 21 20"  xmlns="http://www.w3.org/2000/svg">
<path fill-rule="evenodd" clip-rule="evenodd" d="M9.0632 6.66692C9.04168 6.68077 9.01496 6.69883 8.98284 6.72194C8.83351 6.82941 8.62715 7.00263 8.37825 7.24083C7.88331 7.71448 7.26872 8.39833 6.67042 9.20872C5.4483 10.8641 4.41667 12.8814 4.41667 14.6303C4.41667 15.0063 4.65107 15.4275 5.36046 15.8333H15.1189C15.8471 15.4228 16.0833 14.9992 16.0833 14.6303C16.0833 12.8908 15.0967 10.8684 13.9182 9.21218C13.3403 8.39997 12.7441 7.71511 12.2576 7.24191C12.0128 7.00384 11.8093 6.83262 11.6605 6.72729C11.6228 6.70055 11.5925 6.68086 11.5693 6.66676C11.4953 6.66672 11.3863 6.66668 11.2499 6.66667L9.0632 6.66692ZM9.12159 6.63228C9.12195 6.63209 9.1223 6.63191 9.12265 6.63174C9.13896 6.6235 9.13765 6.62589 9.12159 6.63228ZM11.6944 5.00033C11.4901 4.99968 9.34052 5.00018 8.97054 5.00026L8.91667 5.00028C8.67109 5.00028 8.46786 5.09526 8.37117 5.1441C8.24794 5.20635 8.12505 5.28587 8.00934 5.36914C7.77587 5.53715 7.50827 5.7665 7.22592 6.0367C6.65836 6.57985 5.98128 7.33608 5.32958 8.2188C4.0517 9.94968 2.75 12.3306 2.75 14.6303C2.75 15.956 3.69606 16.8557 4.76803 17.4076L4.94755 17.5H15.5274L15.7055 17.4093C16.7853 16.8598 17.75 15.9607 17.75 14.6303C17.75 12.3621 16.5144 9.98608 15.2762 8.24593C14.6458 7.35993 13.985 6.59706 13.4195 6.04709C13.1383 5.77358 12.8669 5.53935 12.6237 5.36714C12.5028 5.2815 12.3733 5.20002 12.2412 5.13679C12.1269 5.08205 11.9292 5.00033 11.6944 5.00033Z" />
<path fill-rule="evenodd" clip-rule="evenodd" d="M6.20033 2.07514C6.35037 1.82184 6.62292 1.6665 6.91732 1.6665H13.584C13.8784 1.6665 14.1509 1.82184 14.301 2.07514C14.451 2.32843 14.4563 2.6421 14.3148 2.90028L12.4883 6.23362C12.342 6.50055 12.0619 6.6665 11.7575 6.6665H8.7438C8.43942 6.6665 8.15925 6.50055 8.01299 6.23362L6.1865 2.90028C6.04504 2.6421 6.05029 2.32843 6.20033 2.07514ZM8.32417 3.33317L9.23742 4.99984H11.2639L12.1771 3.33317H8.32417Z" />
</svg>
