<svg width="16" height="16" viewBox="0 0 16 16"  xmlns="http://www.w3.org/2000/svg">
<path d="M12.6611 14.0013H11.9945V12.89C11.9924 12.5085 11.9248 12.1301 11.7948 11.7715C11.7875 11.7519 11.7798 11.7338 11.7708 11.7151C11.6629 11.4207 11.5137 11.1431 11.3278 10.8906L10.3945 9.64583C10.1356 9.29907 9.9953 8.87808 9.99447 8.44531V7.7721C9.99599 7.24205 10.2064 6.73397 10.5801 6.35804L11.0182 5.91989C11.5273 5.40805 11.8543 4.74329 11.9491 4.02764C11.9495 4.01836 11.9544 4.01063 11.9544 4.00127L11.9526 3.99212C11.9757 3.85017 11.9897 3.70687 11.9945 3.56312V2.0013H12.6611C12.838 2.0013 13.0075 1.93106 13.1325 1.80604C13.2576 1.68102 13.3278 1.51145 13.3278 1.33464C13.3278 1.15782 13.2576 0.988255 13.1325 0.863231C13.0075 0.738207 12.838 0.667969 12.6611 0.667969H3.32781C3.151 0.667969 2.98143 0.738207 2.8564 0.863231C2.73138 0.988255 2.66114 1.15782 2.66114 1.33464C2.66114 1.51145 2.73138 1.68102 2.8564 1.80604C2.98143 1.93106 3.151 2.0013 3.32781 2.0013H3.99447V3.56312C3.99921 3.70687 4.01321 3.85017 4.03639 3.99212L4.03451 4.0013C4.03451 4.01064 4.03947 4.0184 4.03984 4.02767C4.13461 4.74332 4.46163 5.40808 4.97071 5.91992L5.40886 6.35808C5.78252 6.734 5.99293 7.24207 5.99447 7.7721V8.4453C5.9936 8.87802 5.85344 9.29896 5.59473 9.64582L4.66081 10.8906C4.47497 11.1432 4.32585 11.4209 4.21789 11.7154C4.20903 11.7339 4.20141 11.7518 4.19421 11.7712C4.06412 12.1299 3.99655 12.5084 3.99447 12.89V14.0013H3.3278C3.15099 14.0013 2.98142 14.0715 2.85639 14.1966C2.73137 14.3216 2.66113 14.4912 2.66113 14.668C2.66113 14.8448 2.73137 15.0143 2.85639 15.1394C2.98142 15.2644 3.15099 15.3346 3.3278 15.3346H12.6611C12.8379 15.3346 13.0075 15.2644 13.1325 15.1394C13.2576 15.0143 13.3278 14.8448 13.3278 14.668C13.3278 14.4912 13.2576 14.3216 13.1325 14.1966C13.0075 14.0715 12.8379 14.0013 12.6611 14.0013ZM5.3278 3.33464V2.0013H10.6611V3.33464H5.3278ZM5.91341 4.97722C5.81948 4.88284 5.7353 4.77924 5.66215 4.66797H10.3268C10.2536 4.77923 10.1695 4.88284 10.0755 4.97722L9.63737 5.41537C9.11735 5.93234 8.7839 6.60748 8.68945 7.33464H7.29945C7.20503 6.60746 6.87159 5.93229 6.35156 5.4153L5.91341 4.97722ZM6.66146 10.4453C7.04721 9.92842 7.27594 9.31139 7.32031 8.66797H8.66862C8.71296 9.31145 8.94182 9.92853 9.3278 10.4453L9.99455 11.3346H5.99422L6.66146 10.4453ZM10.6611 14.0013H5.3278V12.89C5.32966 12.8157 5.33571 12.7416 5.34595 12.668H10.643C10.6532 12.7416 10.6593 12.8157 10.6611 12.89V14.0013Z" />
</svg>
