<svg width="24" height="24" viewBox="0 0 24 24" xmlns="http://www.w3.org/2000/svg">
<path fill-rule="evenodd" clip-rule="evenodd" d="M6 5C4.89543 5 4 5.89543 4 7V17C4 18.1046 4.89543 19 6 19H18C19.1046 19 20 18.1046 20 17V7C20 5.89543 19.1046 5 18 5H6ZM2 7C2 4.79086 3.79086 3 6 3H18C20.2091 3 22 4.79086 22 7V17C22 19.2091 20.2091 21 18 21H6C3.79086 21 2 19.2091 2 17V7Z"/>
<path fill-rule="evenodd" clip-rule="evenodd" d="M9 9C8.44772 9 8 9.44771 8 10C8 10.5523 8.44772 11 9 11C9.55228 11 10 10.5523 10 10C10 9.44771 9.55228 9 9 9ZM6 10C6 8.34315 7.34314 7 9 7C10.6569 7 12 8.34315 12 10C12 11.6569 10.6569 13 9 13C7.34314 13 6 11.6569 6 10Z"/>
<path fill-rule="evenodd" clip-rule="evenodd" d="M14 8C14 7.44772 14.4477 7 15 7H17C17.5523 7 18 7.44772 18 8C18 8.55228 17.5523 9 17 9H15C14.4477 9 14 8.55228 14 8Z"/>
<path fill-rule="evenodd" clip-rule="evenodd" d="M14 12C14 11.4477 14.4477 11 15 11H17C17.5523 11 18 11.4477 18 12C18 12.5523 17.5523 13 17 13H15C14.4477 13 14 12.5523 14 12Z"/>
<path fill-rule="evenodd" clip-rule="evenodd" d="M6 16C6 15.4477 6.44772 15 7 15H17C17.5523 15 18 15.4477 18 16C18 16.5523 17.5523 17 17 17H7C6.44772 17 6 16.5523 6 16Z"/>
</svg>
