<svg width="24" height="24" viewBox="0 0 24 24" fill="none" xmlns="http://www.w3.org/2000/svg">
<path d="M21 4.41L21.71 3.71C21.8983 3.5217 22.0041 3.2663 22.0041 3C22.0041 2.7337 21.8983 2.47831 21.71 2.29C21.5217 2.1017 21.2663 1.99591 21 1.99591C20.7337 1.99591 20.4783 2.1017 20.29 2.29L18.89 3.7L16.06 6.53L9.75 12.83C8.71604 12.1478 7.46567 11.8738 6.24117 12.0609C5.01667 12.248 3.90522 12.883 3.12219 13.8429C2.33915 14.8027 1.94029 16.019 2.00288 17.2561C2.06547 18.4933 2.58505 19.6631 3.46096 20.539C4.33686 21.415 5.50672 21.9345 6.74386 21.9971C7.98099 22.0597 9.19732 21.6608 10.1572 20.8778C11.117 20.0948 11.752 18.9833 11.9391 17.7588C12.1262 16.5343 11.8522 15.284 11.17 14.25L16.76 8.65L18.88 10.78C18.9732 10.8726 19.0838 10.9459 19.2054 10.9957C19.3269 11.0456 19.4571 11.071 19.5885 11.0706C19.7199 11.0701 19.8499 11.0438 19.9712 10.993C20.0924 10.9423 20.2024 10.8682 20.295 10.775C20.3876 10.6818 20.4609 10.5712 20.5107 10.4496C20.5606 10.3281 20.586 10.1979 20.5856 10.0665C20.5851 9.93507 20.5588 9.80505 20.508 9.68384C20.4573 9.56262 20.3832 9.45258 20.29 9.36L18.17 7.24L19.59 5.83L20.29 6.53C20.3826 6.62324 20.4926 6.69733 20.6138 6.74804C20.7351 6.79875 20.8651 6.82509 20.9965 6.82556C21.1279 6.82602 21.2581 6.8006 21.3796 6.75075C21.5012 6.70089 21.6118 6.62758 21.705 6.535C21.7982 6.44242 21.8723 6.33238 21.923 6.21116C21.9738 6.08995 22.0001 5.95993 22.0006 5.82854C22.001 5.69714 21.9756 5.56694 21.9257 5.44537C21.8759 5.3238 21.8026 5.21324 21.71 5.12L21 4.41ZM7 20C6.40666 20 5.82664 19.8241 5.33329 19.4944C4.83994 19.1648 4.45542 18.6962 4.22836 18.1481C4.0013 17.5999 3.94189 16.9967 4.05764 16.4147C4.1734 15.8328 4.45912 15.2982 4.87868 14.8787C5.29824 14.4591 5.83279 14.1734 6.41473 14.0576C6.99667 13.9419 7.59987 14.0013 8.14805 14.2284C8.69623 14.4554 9.16476 14.8399 9.49441 15.3333C9.82405 15.8266 10 16.4067 10 17C10 17.7957 9.68393 18.5587 9.12132 19.1213C8.55871 19.6839 7.79565 20 7 20Z" fill="#8891A0"/>
</svg>
