<svg width="20" height="20" viewBox="0 0 20 20"  xmlns="http://www.w3.org/2000/svg">
<path fill-rule="evenodd" clip-rule="evenodd" d="M1.66732 4.1665C1.20708 4.1665 0.833984 3.79341 0.833984 3.33317L0.833984 1.6665C0.833985 1.20627 1.20708 0.83317 1.66732 0.83317C2.12756 0.83317 2.50065 1.20627 2.50065 1.6665L2.50065 3.33317C2.50065 3.79341 2.12756 4.1665 1.66732 4.1665Z" />
<path fill-rule="evenodd" clip-rule="evenodd" d="M13.3333 4.1665C12.8731 4.1665 12.5 3.79341 12.5 3.33317L12.5 1.6665C12.5 1.20627 12.8731 0.83317 13.3333 0.83317C13.7936 0.83317 14.1667 1.20627 14.1667 1.6665L14.1667 3.33317C14.1667 3.79341 13.7936 4.1665 13.3333 4.1665Z" />
<path fill-rule="evenodd" clip-rule="evenodd" d="M19.166 18.3332C19.166 18.7934 18.7929 19.1665 18.3327 19.1665L16.666 19.1665C16.2058 19.1665 15.8327 18.7934 15.8327 18.3332C15.8327 17.8729 16.2058 17.4998 16.666 17.4998L18.3327 17.4998C18.7929 17.4998 19.166 17.8729 19.166 18.3332Z" />
<path fill-rule="evenodd" clip-rule="evenodd" d="M19.166 6.66667C19.166 7.1269 18.7929 7.5 18.3327 7.5L16.666 7.5C16.2058 7.5 15.8327 7.1269 15.8327 6.66667C15.8327 6.20643 16.2058 5.83333 16.666 5.83333L18.3327 5.83333C18.7929 5.83333 19.166 6.20643 19.166 6.66667Z" />
<path fill-rule="evenodd" clip-rule="evenodd" d="M1.66602 7.49984C1.66602 7.0396 2.03911 6.6665 2.49935 6.6665H5.83268C6.29292 6.6665 6.66602 7.0396 6.66602 7.49984V10.8332C6.66602 11.2934 6.29292 11.6665 5.83268 11.6665H2.49935C2.03911 11.6665 1.66602 11.2934 1.66602 10.8332V7.49984ZM3.33268 8.33317V9.99984H4.99935V8.33317H3.33268Z" />
<path fill-rule="evenodd" clip-rule="evenodd" d="M8.33398 7.49984C8.33398 7.0396 8.70708 6.6665 9.16732 6.6665H12.5007C12.9609 6.6665 13.334 7.0396 13.334 7.49984V10.8332C13.334 11.2934 12.9609 11.6665 12.5007 11.6665H9.16732C8.70708 11.6665 8.33398 11.2934 8.33398 10.8332V7.49984ZM10.0007 8.33317V9.99984H11.6673V8.33317H10.0007Z" />
<path fill-rule="evenodd" clip-rule="evenodd" d="M8.33398 14.1668C8.33398 13.7066 8.70708 13.3335 9.16732 13.3335H12.5007C12.9609 13.3335 13.334 13.7066 13.334 14.1668V17.5002C13.334 17.9604 12.9609 18.3335 12.5007 18.3335H9.16732C8.70708 18.3335 8.33398 17.9604 8.33398 17.5002V14.1668ZM10.0007 15.0002V16.6668H11.6673V15.0002H10.0007Z" />
<path fill-rule="evenodd" clip-rule="evenodd" d="M1.66602 14.1668C1.66602 13.7066 2.03911 13.3335 2.49935 13.3335H5.83268C6.29292 13.3335 6.66602 13.7066 6.66602 14.1668V17.5002C6.66602 17.9604 6.29292 18.3335 5.83268 18.3335H2.49935C2.03911 18.3335 1.66602 17.9604 1.66602 17.5002V14.1668ZM3.33268 15.0002V16.6668H4.99935V15.0002H3.33268Z" />
<path fill-rule="evenodd" clip-rule="evenodd" d="M1.66602 2.49984C1.66602 2.0396 2.06781 1.6665 2.56345 1.6665L12.4352 1.6665C12.9309 1.6665 13.3327 2.0396 13.3327 2.49984C13.3327 2.96007 12.9309 3.33317 12.4352 3.33317L2.56345 3.33317C2.06781 3.33317 1.66602 2.96007 1.66602 2.49984Z" />
<path fill-rule="evenodd" clip-rule="evenodd" d="M17.4993 18.3335C17.0391 18.3335 16.666 17.9317 16.666 17.4361L16.666 7.56426C16.666 7.06862 17.0391 6.66683 17.4993 6.66683C17.9596 6.66683 18.3327 7.06862 18.3327 7.56426L18.3327 17.4361C18.3327 17.9317 17.9596 18.3335 17.4993 18.3335Z" />
</svg>
