<svg width="40" height="40" viewBox="0 0 40 40" xmlns="http://www.w3.org/2000/svg">
<path d="M33.6 8C30.0654 8 27.2 10.8654 27.2 14.4V31.2C27.2 31.6418 27.5582 32 28 32H32.8C33.2419 32 33.6 31.6418 33.6 31.2V8Z" />
<path d="M12.8 18.4C12.8 14.8654 9.93465 12 6.40002 12V31.2C6.40002 31.6418 6.7582 32 7.20002 32H12C12.4419 32 12.8 31.6418 12.8 31.2V18.4Z" />
<path d="M23.1707 14.8C19.6523 14.8 16.8 17.6522 16.8 21.1706V25.6C16.8 26.0418 17.1582 26.4 17.6 26.4H22.4C22.8419 26.4 23.2 26.0418 23.2 25.6V14.8294C23.2 14.8131 23.1869 14.8 23.1707 14.8Z" />
</svg>
