<svg width="21" height="20" viewBox="0 0 21 20"  xmlns="http://www.w3.org/2000/svg">
<path fill-rule="evenodd" clip-rule="evenodd" d="M2.41732 4.1665C1.95708 4.1665 1.58398 3.79341 1.58398 3.33317L1.58398 1.6665C1.58398 1.20627 1.95708 0.83317 2.41732 0.83317C2.87756 0.83317 3.25065 1.20627 3.25065 1.6665L3.25065 3.33317C3.25065 3.79341 2.87756 4.1665 2.41732 4.1665Z" />
<path fill-rule="evenodd" clip-rule="evenodd" d="M14.0833 4.1665C13.6231 4.1665 13.25 3.79341 13.25 3.33317L13.25 1.6665C13.25 1.20627 13.6231 0.83317 14.0833 0.83317C14.5436 0.83317 14.9167 1.20627 14.9167 1.6665L14.9167 3.33317C14.9167 3.79341 14.5436 4.1665 14.0833 4.1665Z" />
<path fill-rule="evenodd" clip-rule="evenodd" d="M19.916 18.3332C19.916 18.7934 19.5429 19.1665 19.0827 19.1665L17.416 19.1665C16.9558 19.1665 16.5827 18.7934 16.5827 18.3332C16.5827 17.8729 16.9558 17.4998 17.416 17.4998L19.0827 17.4998C19.5429 17.4998 19.916 17.8729 19.916 18.3332Z" />
<path fill-rule="evenodd" clip-rule="evenodd" d="M19.916 6.66667C19.916 7.1269 19.5429 7.5 19.0827 7.5L17.416 7.5C16.9558 7.5 16.5827 7.1269 16.5827 6.66667C16.5827 6.20643 16.9558 5.83333 17.416 5.83333L19.0827 5.83333C19.5429 5.83333 19.916 6.20643 19.916 6.66667Z" />
<path fill-rule="evenodd" clip-rule="evenodd" d="M1.58398 6.66683C1.58398 6.20659 1.95708 5.8335 2.41732 5.8335H14.084C14.5442 5.8335 14.9173 6.20659 14.9173 6.66683V18.3335C14.9173 18.7937 14.5442 19.1668 14.084 19.1668H2.41732C1.95708 19.1668 1.58398 18.7937 1.58398 18.3335V6.66683ZM3.25065 7.50016V17.5002H13.2507V7.50016H3.25065Z" />
<path fill-rule="evenodd" clip-rule="evenodd" d="M6.58268 9.1665C7.04292 9.1665 7.41602 9.5396 7.41602 9.99984L7.41602 11.6665C7.41602 12.1267 7.04292 12.4998 6.58268 12.4998C6.12244 12.4998 5.74935 12.1267 5.74935 11.6665L5.74935 10.8332L3.24935 10.8332C2.78911 10.8332 2.41602 10.4601 2.41602 9.99984C2.41602 9.5396 2.78911 9.1665 3.24935 9.1665L6.58268 9.1665Z" />
<path fill-rule="evenodd" clip-rule="evenodd" d="M6.58268 14.1665C7.04292 14.1665 7.41602 14.5396 7.41602 14.9998L7.41602 18.3332C7.41602 18.7934 7.04292 19.1665 6.58268 19.1665C6.12244 19.1665 5.74935 18.7934 5.74935 18.3332L5.74935 14.9998C5.74935 14.5396 6.12244 14.1665 6.58268 14.1665Z" />
<path fill-rule="evenodd" clip-rule="evenodd" d="M9.91602 10.8333C9.91602 10.3731 10.2891 10 10.7493 10H13.2493C13.7096 10 14.0827 10.3731 14.0827 10.8333C14.0827 11.2936 13.7096 11.6667 13.2493 11.6667H10.7493C10.2891 11.6667 9.91602 11.2936 9.91602 10.8333Z" />
<path fill-rule="evenodd" clip-rule="evenodd" d="M2.41602 2.49984C2.41602 2.0396 2.81781 1.6665 3.31345 1.6665L13.1852 1.6665C13.6809 1.6665 14.0827 2.0396 14.0827 2.49984C14.0827 2.96007 13.6809 3.33317 13.1852 3.33317L3.31345 3.33317C2.81781 3.33317 2.41602 2.96007 2.41602 2.49984Z" />
<path fill-rule="evenodd" clip-rule="evenodd" d="M18.2493 18.3335C17.7891 18.3335 17.416 17.9317 17.416 17.4361L17.416 7.56427C17.416 7.06862 17.7891 6.66683 18.2493 6.66683C18.7096 6.66683 19.0827 7.06862 19.0827 7.56427L19.0827 17.4361C19.0827 17.9317 18.7096 18.3335 18.2493 18.3335Z" />
</svg>
