<svg width="16" height="16" viewBox="0 0 16 16"  xmlns="http://www.w3.org/2000/svg">
<path d="M13.3275 1.33447C13.2399 1.33442 13.1532 1.35163 13.0723 1.38512C12.9914 1.4186 12.9179 1.46771 12.856 1.52962C12.794 1.59154 12.7449 1.66505 12.7115 1.74596C12.678 1.82686 12.6608 1.91358 12.6608 2.00114V2.42562C12.0985 3.12275 11.3879 3.68575 10.5806 4.07362C9.77336 4.46149 8.88976 4.66448 7.99414 4.66781H3.99414C3.46389 4.66838 2.95551 4.87928 2.58057 5.25423C2.20562 5.62918 1.99472 6.13755 1.99414 6.66781V8.00114C1.99472 8.53139 2.20562 9.03977 2.58057 9.41471C2.95551 9.78966 3.46389 10.0006 3.99414 10.0011H4.31667L2.71485 13.7387C2.67132 13.8401 2.65364 13.9507 2.66342 14.0606C2.67319 14.1705 2.7101 14.2762 2.77083 14.3683C2.83156 14.4604 2.91422 14.536 3.01137 14.5883C3.10853 14.6406 3.21715 14.6679 3.32747 14.6678H5.99414C6.12464 14.6679 6.25229 14.6296 6.36121 14.5577C6.47013 14.4858 6.55553 14.3835 6.60677 14.2635L8.42261 10.0265C9.24303 10.0867 10.0424 10.3145 10.7714 10.6958C11.5003 11.077 12.1434 11.6037 12.6608 12.2432V12.6678C12.6608 12.8446 12.731 13.0142 12.8561 13.1392C12.9811 13.2642 13.1507 13.3345 13.3275 13.3345C13.5043 13.3345 13.6739 13.2642 13.7989 13.1392C13.9239 13.0142 13.9941 12.8446 13.9941 12.6678V2.00114C13.9942 1.91358 13.977 1.82686 13.9435 1.74596C13.91 1.66505 13.8609 1.59154 13.799 1.52962C13.7371 1.46771 13.6636 1.4186 13.5827 1.38512C13.5017 1.35163 13.415 1.33442 13.3275 1.33447ZM3.99414 8.66781C3.81737 8.66769 3.64787 8.59741 3.52287 8.47241C3.39787 8.34741 3.32759 8.17791 3.32747 8.00114V6.66781C3.32759 6.49103 3.39787 6.32153 3.52287 6.19653C3.64787 6.07154 3.81737 6.00126 3.99414 6.00114H4.66081V8.66781H3.99414ZM5.55469 13.3345H4.33854L5.76693 10.0011H6.98307L5.55469 13.3345ZM12.6608 10.349C11.3463 9.26609 9.69725 8.67199 7.99414 8.66777H5.99414V6.00111H7.99414C9.69729 5.99675 11.3463 5.40254 12.6608 4.31955V10.349Z" />
</svg>
