<svg width="20" height="20" viewBox="0 0 20 20"  xmlns="http://www.w3.org/2000/svg">
<path fill-rule="evenodd" clip-rule="evenodd" d="M1.66732 4.1665C1.20708 4.1665 0.833984 3.79341 0.833984 3.33317L0.833984 1.6665C0.833985 1.20627 1.20708 0.83317 1.66732 0.83317C2.12756 0.83317 2.50065 1.20627 2.50065 1.6665L2.50065 3.33317C2.50065 3.79341 2.12756 4.1665 1.66732 4.1665Z" />
<path fill-rule="evenodd" clip-rule="evenodd" d="M13.3333 4.1665C12.8731 4.1665 12.5 3.79341 12.5 3.33317L12.5 1.6665C12.5 1.20627 12.8731 0.83317 13.3333 0.83317C13.7936 0.83317 14.1667 1.20627 14.1667 1.6665L14.1667 3.33317C14.1667 3.79341 13.7936 4.1665 13.3333 4.1665Z" />
<path fill-rule="evenodd" clip-rule="evenodd" d="M19.166 18.3332C19.166 18.7934 18.7929 19.1665 18.3327 19.1665L16.666 19.1665C16.2058 19.1665 15.8327 18.7934 15.8327 18.3332C15.8327 17.8729 16.2058 17.4998 16.666 17.4998L18.3327 17.4998C18.7929 17.4998 19.166 17.8729 19.166 18.3332Z" />
<path fill-rule="evenodd" clip-rule="evenodd" d="M19.166 6.66667C19.166 7.1269 18.7929 7.5 18.3327 7.5L16.666 7.5C16.2058 7.5 15.8327 7.1269 15.8327 6.66667C15.8327 6.20643 16.2058 5.83333 16.666 5.83333L18.3327 5.83333C18.7929 5.83333 19.166 6.20643 19.166 6.66667Z" />
<path fill-rule="evenodd" clip-rule="evenodd" d="M0.833984 7.08317C0.833984 6.85305 1.02053 6.6665 1.25065 6.6665H2.91732C3.14744 6.6665 3.33398 6.85305 3.33398 7.08317V8.74984C3.33398 8.97996 3.14744 9.1665 2.91732 9.1665H1.25065C1.02053 9.1665 0.833984 8.97996 0.833984 8.74984V7.08317Z" />
<path fill-rule="evenodd" clip-rule="evenodd" d="M5.83398 7.08317C5.83398 6.85305 6.02053 6.6665 6.25065 6.6665H7.91732C8.14744 6.6665 8.33398 6.85305 8.33398 7.08317V8.74984C8.33398 8.97996 8.14744 9.1665 7.91732 9.1665H6.25065C6.02053 9.1665 5.83398 8.97996 5.83398 8.74984V7.08317Z" />
<path fill-rule="evenodd" clip-rule="evenodd" d="M10.834 7.08317C10.834 6.85305 11.0205 6.6665 11.2507 6.6665H12.9173C13.1474 6.6665 13.334 6.85305 13.334 7.08317V8.74984C13.334 8.97996 13.1474 9.1665 12.9173 9.1665H11.2507C11.0205 9.1665 10.834 8.97996 10.834 8.74984V7.08317Z" />
<path fill-rule="evenodd" clip-rule="evenodd" d="M0.833984 12.0832C0.833984 11.8531 1.02053 11.6665 1.25065 11.6665H2.91732C3.14744 11.6665 3.33398 11.8531 3.33398 12.0832V13.7498C3.33398 13.98 3.14744 14.1665 2.91732 14.1665H1.25065C1.02053 14.1665 0.833984 13.98 0.833984 13.7498V12.0832Z" />
<path fill-rule="evenodd" clip-rule="evenodd" d="M5.83398 12.0832C5.83398 11.8531 6.02053 11.6665 6.25065 11.6665H7.91732C8.14744 11.6665 8.33398 11.8531 8.33398 12.0832V13.7498C8.33398 13.98 8.14744 14.1665 7.91732 14.1665H6.25065C6.02053 14.1665 5.83398 13.98 5.83398 13.7498V12.0832Z" />
<path fill-rule="evenodd" clip-rule="evenodd" d="M10.834 12.0832C10.834 11.8531 11.0205 11.6665 11.2507 11.6665H12.9173C13.1474 11.6665 13.334 11.8531 13.334 12.0832V13.7498C13.334 13.98 13.1474 14.1665 12.9173 14.1665H11.2507C11.0205 14.1665 10.834 13.98 10.834 13.7498V12.0832Z" />
<path fill-rule="evenodd" clip-rule="evenodd" d="M0.833984 17.0832C0.833984 16.8531 1.02053 16.6665 1.25065 16.6665H2.91732C3.14744 16.6665 3.33398 16.8531 3.33398 17.0832V18.7498C3.33398 18.98 3.14744 19.1665 2.91732 19.1665H1.25065C1.02053 19.1665 0.833984 18.98 0.833984 18.7498V17.0832Z" />
<path fill-rule="evenodd" clip-rule="evenodd" d="M5.83398 17.0832C5.83398 16.8531 6.02053 16.6665 6.25065 16.6665H7.91732C8.14744 16.6665 8.33398 16.8531 8.33398 17.0832V18.7498C8.33398 18.98 8.14744 19.1665 7.91732 19.1665H6.25065C6.02053 19.1665 5.83398 18.98 5.83398 18.7498V17.0832Z" />
<path fill-rule="evenodd" clip-rule="evenodd" d="M10.834 17.0832C10.834 16.8531 11.0205 16.6665 11.2507 16.6665H12.9173C13.1474 16.6665 13.334 16.8531 13.334 17.0832V18.7498C13.334 18.98 13.1474 19.1665 12.9173 19.1665H11.2507C11.0205 19.1665 10.834 18.98 10.834 18.7498V17.0832Z" />
<path fill-rule="evenodd" clip-rule="evenodd" d="M1.66602 2.49984C1.66602 2.0396 2.06781 1.6665 2.56345 1.6665L12.4352 1.6665C12.9309 1.6665 13.3327 2.0396 13.3327 2.49984C13.3327 2.96007 12.9309 3.33317 12.4352 3.33317L2.56345 3.33317C2.06781 3.33317 1.66602 2.96007 1.66602 2.49984Z" />
<path fill-rule="evenodd" clip-rule="evenodd" d="M17.4993 18.3335C17.0391 18.3335 16.666 17.9317 16.666 17.4361L16.666 7.56426C16.666 7.06862 17.0391 6.66683 17.4993 6.66683C17.9596 6.66683 18.3327 7.06862 18.3327 7.56426L18.3327 17.4361C18.3327 17.9317 17.9596 18.3335 17.4993 18.3335Z" />
</svg>
