<svg width="20" height="20" viewBox="0 0 20 20"  xmlns="http://www.w3.org/2000/svg">
<path fill-rule="evenodd" clip-rule="evenodd" d="M9.16602 2.49984C9.16602 2.0396 9.53911 1.6665 9.99935 1.6665C14.6017 1.6665 18.3327 5.39746 18.3327 9.99984C18.3327 14.6022 14.6017 18.3332 9.99935 18.3332C9.53911 18.3332 9.16602 17.9601 9.16602 17.4998C9.16602 17.0396 9.53911 16.6665 9.99935 16.6665C13.6812 16.6665 16.666 13.6817 16.666 9.99984C16.666 6.31794 13.6812 3.33317 9.99935 3.33317C9.53911 3.33317 9.16602 2.96007 9.16602 2.49984Z" />
<path fill-rule="evenodd" clip-rule="evenodd" d="M10.834 17.5002C10.834 17.9604 10.4609 18.3335 10.0007 18.3335C9.85464 18.3335 9.70943 18.3297 9.56511 18.3223C9.10549 18.2986 8.7521 17.9068 8.77581 17.4471C8.79951 16.9875 9.19133 16.6341 9.65095 16.6578C9.76669 16.6638 9.88328 16.6668 10.0007 16.6668C10.4609 16.6668 10.834 17.0399 10.834 17.5002ZM7.33718 17.0631C7.1279 17.473 6.62596 17.6356 6.21605 17.4263C5.9561 17.2936 5.70409 17.1477 5.46092 16.9894C5.07516 16.7384 4.96594 16.2222 5.21696 15.8364C5.46798 15.4507 5.98419 15.3415 6.36995 15.5925C6.56454 15.7191 6.7661 15.8358 6.97391 15.9419C7.38381 16.1512 7.54646 16.6531 7.33718 17.0631ZM4.16437 14.7839C3.77861 15.0349 3.2624 14.9256 3.01138 14.5399C2.85314 14.2967 2.70721 14.0447 2.57449 13.7848C2.36522 13.3749 2.52786 12.8729 2.93776 12.6636C3.34767 12.4544 3.84961 12.617 4.05889 13.0269C4.16498 13.2347 4.28169 13.4363 4.40832 13.6309C4.65934 14.0166 4.55012 14.5328 4.16437 14.7839ZM2.55367 11.225C2.09405 11.2487 1.70223 10.8953 1.67852 10.4357C1.67108 10.2914 1.66732 10.1462 1.66732 10.0002C1.66732 9.85415 1.67108 9.70894 1.67852 9.56462C1.70223 9.105 2.09405 8.75161 2.55367 8.77532C3.0133 8.79902 3.36668 9.19084 3.34298 9.65047C3.33701 9.7662 3.33399 9.88279 3.33399 10.0002C3.33399 10.1175 3.33701 10.2341 3.34298 10.3499C3.36668 10.8095 3.0133 11.2013 2.55367 11.225ZM2.93776 7.33669C2.52786 7.12741 2.36522 6.62547 2.57449 6.21556C2.70721 5.95561 2.85314 5.7036 3.01138 5.46043C3.2624 5.07467 3.77861 4.96545 4.16437 5.21647C4.55012 5.46749 4.65934 5.9837 4.40832 6.36946C4.28169 6.56405 4.16498 6.76561 4.05889 6.97342C3.84961 7.38332 3.34767 7.54597 2.93776 7.33669ZM5.21696 4.16388C4.96594 3.77812 5.07517 3.26191 5.46092 3.01089C5.7041 2.85265 5.9561 2.70672 6.21606 2.574C6.62596 2.36473 7.12791 2.52737 7.33718 2.93727C7.54646 3.34718 7.38381 3.84912 6.97391 4.0584C6.76611 4.16449 6.56455 4.2812 6.36995 4.40783C5.98419 4.65885 5.46798 4.54963 5.21696 4.16388ZM8.77581 2.55318C8.7521 2.09356 9.10549 1.70174 9.56512 1.67803C9.70943 1.67059 9.85464 1.66683 10.0007 1.66683C10.4609 1.66683 10.834 2.03992 10.834 2.50016C10.834 2.9604 10.4609 3.3335 10.0007 3.3335C9.88328 3.3335 9.76669 3.33652 9.65096 3.34249C9.19133 3.36619 8.79951 3.01281 8.77581 2.55318Z" />
<path fill-rule="evenodd" clip-rule="evenodd" d="M9.99935 5.4165C10.4596 5.4165 10.8327 5.7896 10.8327 6.24984V9.58317L12.166 10.5832C12.5342 10.8593 12.6088 11.3816 12.3327 11.7498C12.0565 12.118 11.5342 12.1926 11.166 11.9165L9.49935 10.6665C9.28951 10.5091 9.16602 10.2621 9.16602 9.99984V6.24984C9.16602 5.7896 9.53911 5.4165 9.99935 5.4165Z" />
</svg>
