<svg width="16" height="16" viewBox="0 0 16 16" xmlns="http://www.w3.org/2000/svg">
<path fill-rule="evenodd" clip-rule="evenodd" d="M8.00065 6.66634C7.26427 6.66634 6.66732 7.26329 6.66732 7.99967C6.66732 8.73605 7.26427 9.33301 8.00065 9.33301C8.73703 9.33301 9.33398 8.73605 9.33398 7.99967C9.33398 7.26329 8.73703 6.66634 8.00065 6.66634ZM5.33398 7.99967C5.33398 6.52692 6.52789 5.33301 8.00065 5.33301C9.47341 5.33301 10.6673 6.52692 10.6673 7.99967C10.6673 9.47243 9.47341 10.6663 8.00065 10.6663C6.52789 10.6663 5.33398 9.47243 5.33398 7.99967Z" />
<path fill-rule="evenodd" clip-rule="evenodd" d="M3.33398 4.66634C2.96579 4.66634 2.66732 4.96482 2.66732 5.33301V10.6663C2.66732 11.0345 2.96579 11.333 3.33398 11.333H12.6673C13.0355 11.333 13.334 11.0345 13.334 10.6663V5.33301C13.334 4.96482 13.0355 4.66634 12.6673 4.66634H3.33398ZM1.33398 5.33301C1.33398 4.22844 2.22941 3.33301 3.33398 3.33301H12.6673C13.7719 3.33301 14.6673 4.22844 14.6673 5.33301V10.6663C14.6673 11.7709 13.7719 12.6663 12.6673 12.6663H3.33398C2.22941 12.6663 1.33398 11.7709 1.33398 10.6663V5.33301Z" />
<path fill-rule="evenodd" clip-rule="evenodd" d="M11.334 7.99967C11.334 7.63148 11.6325 7.33301 12.0007 7.33301H12.0073C12.3755 7.33301 12.674 7.63148 12.674 7.99967C12.674 8.36786 12.3755 8.66634 12.0073 8.66634H12.0007C11.6325 8.66634 11.334 8.36786 11.334 7.99967Z" />
<path fill-rule="evenodd" clip-rule="evenodd" d="M3.33398 7.99967C3.33398 7.63148 3.63246 7.33301 4.00065 7.33301H4.00732C4.37551 7.33301 4.67399 7.63148 4.67399 7.99967C4.67399 8.36786 4.37551 8.66634 4.00732 8.66634H4.00065C3.63246 8.66634 3.33398 8.36786 3.33398 7.99967Z" />
</svg>
