<svg width="16" height="16" viewBox="0 0 16 16" xmlns="http://www.w3.org/2000/svg">
<path d="M14.0007 1.33301C13.8238 1.33301 13.6543 1.40325 13.5292 1.52827C13.4042 1.65329 13.334 1.82286 13.334 1.99967V3.99967H10.6673V3.33301C10.6673 3.1562 10.5971 2.98663 10.4721 2.8616C10.347 2.73658 10.1775 2.66634 10.0007 2.66634C9.82384 2.66634 9.65427 2.73658 9.52925 2.8616C9.40422 2.98663 9.33398 3.1562 9.33398 3.33301V3.99967H8.00065V3.33301C8.00065 3.1562 7.93041 2.98663 7.80539 2.8616C7.68036 2.73658 7.5108 2.66634 7.33398 2.66634C7.15717 2.66634 6.9876 2.73658 6.86258 2.8616C6.73756 2.98663 6.66732 3.1562 6.66732 3.33301V3.99967H5.33398V3.33301C5.33398 3.1562 5.26375 2.98663 5.13872 2.8616C5.0137 2.73658 4.84413 2.66634 4.66732 2.66634C4.49051 2.66634 4.32094 2.73658 4.19591 2.8616C4.07089 2.98663 4.00065 3.1562 4.00065 3.33301V3.99967H2.66732V1.99967C2.66732 1.82286 2.59708 1.65329 2.47206 1.52827C2.34703 1.40325 2.17746 1.33301 2.00065 1.33301C1.82384 1.33301 1.65427 1.40325 1.52925 1.52827C1.40422 1.65329 1.33398 1.82286 1.33398 1.99967V12.6663C1.33398 13.1968 1.5447 13.7055 1.91977 14.0806C2.29484 14.4556 2.80355 14.6663 3.33398 14.6663H12.6673C13.1978 14.6663 13.7065 14.4556 14.0815 14.0806C14.4566 13.7055 14.6673 13.1968 14.6673 12.6663V1.99967C14.6673 1.82286 14.5971 1.65329 14.4721 1.52827C14.347 1.40325 14.1775 1.33301 14.0007 1.33301ZM13.334 12.6663C13.334 12.8432 13.2637 13.0127 13.1387 13.1377C13.0137 13.2628 12.8441 13.333 12.6673 13.333H3.33398C3.15717 13.333 2.9876 13.2628 2.86258 13.1377C2.73756 13.0127 2.66732 12.8432 2.66732 12.6663V10.6663H4.00065V11.333C4.00065 11.5098 4.07089 11.6794 4.19591 11.8044C4.32094 11.9294 4.49051 11.9997 4.66732 11.9997C4.84413 11.9997 5.0137 11.9294 5.13872 11.8044C5.26375 11.6794 5.33398 11.5098 5.33398 11.333V10.6663H6.66732V11.333C6.66732 11.5098 6.73756 11.6794 6.86258 11.8044C6.9876 11.9294 7.15717 11.9997 7.33398 11.9997C7.5108 11.9997 7.68036 11.9294 7.80539 11.8044C7.93041 11.6794 8.00065 11.5098 8.00065 11.333V10.6663H10.6673V11.333C10.6673 11.5098 10.7376 11.6794 10.8626 11.8044C10.9876 11.9294 11.1572 11.9997 11.334 11.9997C11.5108 11.9997 11.6804 11.9294 11.8054 11.8044C11.9304 11.6794 12.0007 11.5098 12.0007 11.333V10.6663H13.334V12.6663ZM13.334 9.33301H12.0007V8.66634C12.0007 8.48953 11.9304 8.31996 11.8054 8.19494C11.6804 8.06991 11.5108 7.99967 11.334 7.99967C11.1572 7.99967 10.9876 8.06991 10.8626 8.19494C10.7376 8.31996 10.6673 8.48953 10.6673 8.66634V9.33301H8.00065V8.66634C8.00065 8.48953 7.93041 8.31996 7.80539 8.19494C7.68036 8.06991 7.5108 7.99967 7.33398 7.99967C7.15717 7.99967 6.9876 8.06991 6.86258 8.19494C6.73756 8.31996 6.66732 8.48953 6.66732 8.66634V9.33301H5.33398V8.66634C5.33398 8.48953 5.26375 8.31996 5.13872 8.19494C5.0137 8.06991 4.84413 7.99967 4.66732 7.99967C4.49051 7.99967 4.32094 8.06991 4.19591 8.19494C4.07089 8.31996 4.00065 8.48953 4.00065 8.66634V9.33301H2.66732V5.33301H4.00065V5.99967C4.00065 6.17649 4.07089 6.34605 4.19591 6.47108C4.32094 6.5961 4.49051 6.66634 4.66732 6.66634C4.84413 6.66634 5.0137 6.5961 5.13872 6.47108C5.26375 6.34605 5.33398 6.17649 5.33398 5.99967V5.33301H6.66732V5.99967C6.66732 6.17649 6.73756 6.34605 6.86258 6.47108C6.9876 6.5961 7.15717 6.66634 7.33398 6.66634C7.5108 6.66634 7.68036 6.5961 7.80539 6.47108C7.93041 6.34605 8.00065 6.17649 8.00065 5.99967V5.33301H9.33398V5.99967C9.33398 6.17649 9.40422 6.34605 9.52925 6.47108C9.65427 6.5961 9.82384 6.66634 10.0007 6.66634C10.1775 6.66634 10.347 6.5961 10.4721 6.47108C10.5971 6.34605 10.6673 6.17649 10.6673 5.99967V5.33301H13.334V9.33301Z" />
</svg>
