<svg width="16" height="16" viewBox="0 0 16 16"  xmlns="http://www.w3.org/2000/svg">
<path d="M10.194 6.85984L8.34067 8.71317C8.22969 8.68366 8.11549 8.66799 8.00067 8.6665C7.64705 8.6665 7.30791 8.80698 7.05786 9.05703C6.80781 9.30708 6.66734 9.64621 6.66734 9.99984C6.66882 10.1147 6.6845 10.2289 6.714 10.3398L6.19401 10.8598C6.13152 10.9218 6.08192 10.9955 6.04808 11.0768C6.01423 11.158 5.99681 11.2452 5.99681 11.3332C5.99681 11.4212 6.01423 11.5083 6.04808 11.5896C6.08192 11.6708 6.13152 11.7445 6.19401 11.8065C6.25598 11.869 6.32971 11.9186 6.41095 11.9524C6.49219 11.9863 6.57933 12.0037 6.66734 12.0037C6.75535 12.0037 6.84248 11.9863 6.92372 11.9524C7.00496 11.9186 7.0787 11.869 7.14067 11.8065L7.66067 11.2865C7.77165 11.316 7.88585 11.3317 8.00067 11.3332C8.35429 11.3332 8.69343 11.1927 8.94348 10.9426C9.19353 10.6926 9.33401 10.3535 9.33401 9.99984C9.33252 9.88501 9.31685 9.77081 9.28734 9.65984L11.1407 7.8065C11.2662 7.68097 11.3367 7.5107 11.3367 7.33317C11.3367 7.15564 11.2662 6.98537 11.1407 6.85984C11.0151 6.7343 10.8449 6.66378 10.6673 6.66378C10.4898 6.66378 10.3195 6.7343 10.194 6.85984ZM8.00067 2.6665C7.12519 2.6665 6.25829 2.83894 5.44945 3.17397C4.64061 3.50901 3.90568 4.00007 3.28663 4.61913C2.03638 5.86937 1.334 7.56506 1.334 9.33317C1.33072 10.6536 1.72315 11.9446 2.46067 13.0398C2.55969 13.1866 2.71294 13.288 2.88673 13.3218C3.06051 13.3555 3.24059 13.3189 3.38734 13.2198C3.53409 13.1208 3.6355 12.9676 3.66926 12.7938C3.70301 12.62 3.66635 12.4399 3.56734 12.2932C3.03035 11.4902 2.72152 10.5565 2.67384 9.59165C2.62616 8.62684 2.8414 7.6672 3.29659 6.81519C3.75179 5.96318 4.42984 5.25079 5.25834 4.7541C6.08684 4.2574 7.03469 3.99504 8.00067 3.99504C8.96666 3.99504 9.9145 4.2574 10.743 4.7541C11.5715 5.25079 12.2496 5.96318 12.7047 6.81519C13.1599 7.6672 13.3752 8.62684 13.3275 9.59165C13.2798 10.5565 12.971 11.4902 12.434 12.2932C12.3849 12.3658 12.3505 12.4474 12.333 12.5333C12.3155 12.6192 12.315 12.7078 12.3317 12.7938C12.3485 12.8799 12.382 12.9619 12.4304 13.035C12.4789 13.1081 12.5413 13.1709 12.614 13.2198C12.7244 13.294 12.8544 13.3335 12.9873 13.3332C13.0965 13.3333 13.2041 13.3067 13.3006 13.2555C13.3971 13.2044 13.4795 13.1303 13.5407 13.0398C14.2782 11.9446 14.6706 10.6536 14.6673 9.33317C14.6673 7.56506 13.965 5.86937 12.7147 4.61913C11.4645 3.36888 9.76878 2.6665 8.00067 2.6665Z" />
</svg>
