<svg width="21" height="20" viewBox="0 0 21 20"  xmlns="http://www.w3.org/2000/svg">
<path fill-rule="evenodd" clip-rule="evenodd" d="M17.3887 4.26296L16.5753 4.10313L16.4155 3.28972C16.6865 3.23647 16.9662 3.32168 17.1615 3.51697C17.3568 3.71225 17.442 3.99196 17.3887 4.26296ZM4.85212 15.8263C4.04194 16.0018 4.04182 16.0012 4.04182 16.0012L4.0413 15.9988L4.04029 15.994L4.03722 15.9793C4.03473 15.9672 4.03136 15.9504 4.02728 15.9294C4.01911 15.8872 4.00804 15.8276 3.99529 15.7522C3.96979 15.6014 3.93744 15.3869 3.90799 15.1225C3.84926 14.5951 3.80113 13.8607 3.84462 13.0318C3.93039 11.3972 4.38025 9.26428 5.9584 7.68614C7.48115 6.16338 10.1659 5.07312 12.3308 4.37307C13.4379 4.01506 14.4557 3.74502 15.1964 3.56447C15.5672 3.47409 15.8696 3.40587 16.0804 3.36004C16.1858 3.33711 16.2684 3.31978 16.3252 3.30805L16.3907 3.29467L16.4083 3.29114L16.4155 3.28972C16.4155 3.28972 16.4155 3.28972 16.5753 4.10313C17.3887 4.26296 17.3887 4.26296 17.3887 4.26296L17.3873 4.27012L17.3838 4.28774L17.3704 4.3533C17.3587 4.4101 17.3413 4.49266 17.3184 4.59807C17.2726 4.80884 17.2044 5.11127 17.114 5.48204C16.9334 6.22273 16.6634 7.24053 16.3054 8.34767C15.6053 10.5125 14.5151 13.1973 12.9923 14.7201C11.4142 16.2982 9.28126 16.7481 7.64668 16.8338C6.81771 16.8773 6.08337 16.8292 5.55598 16.7705C5.29152 16.741 5.07703 16.7087 4.92628 16.6832C4.85085 16.6704 4.79121 16.6594 4.74908 16.6512C4.72801 16.6471 4.71131 16.6437 4.69917 16.6412L4.68443 16.6382L4.67968 16.6372L4.67796 16.6368C4.67796 16.6368 4.6767 16.6365 4.85212 15.8263ZM4.85212 15.8263L4.04182 16.0012C4.11062 16.3189 4.35894 16.5677 4.6767 16.6365L4.85212 15.8263ZM5.57528 15.1032C5.62693 15.1097 5.68173 15.1163 5.73947 15.1227C6.20101 15.1741 6.84223 15.2159 7.55981 15.1782C9.01832 15.1017 10.6624 14.7053 11.82 13.5477C13.033 12.3348 14.0273 10.0041 14.7279 7.83756C15.0524 6.83423 15.3022 5.90423 15.4753 5.20312C14.7742 5.37623 13.8442 5.62611 12.8409 5.95056C10.6743 6.65116 8.34369 7.64548 7.13072 8.85846C5.97313 10.016 5.57678 11.6601 5.50026 13.1186C5.46261 13.8362 5.50432 14.4774 5.55572 14.939C5.56215 14.9967 5.56872 15.0515 5.57528 15.1032Z" />
<path fill-rule="evenodd" clip-rule="evenodd" d="M2.13418 18.1278C1.80874 17.8024 1.8335 17.25 2.18948 16.894L10.7656 8.73373C11.1216 8.37775 11.674 8.353 11.9994 8.67843C12.3249 9.00387 12.3001 9.55626 11.9441 9.91224L3.36799 18.0725C3.01201 18.4285 2.45961 18.4533 2.13418 18.1278Z" />
<path fill-rule="evenodd" clip-rule="evenodd" d="M9.08398 10.8332C9.08398 11.2934 9.44458 11.6665 9.8894 11.6665L14.1119 11.6665C14.5567 11.6665 14.9173 11.2934 14.9173 10.8332C14.9173 10.3729 14.5567 9.99984 14.1119 9.99984L9.8894 9.99984C9.44458 9.99984 9.08398 10.3729 9.08398 10.8332Z" />
<path fill-rule="evenodd" clip-rule="evenodd" d="M6.58398 13.3332C6.58398 13.7934 6.95708 14.1665 7.41732 14.1665L12.6195 14.1665C13.0798 14.1665 13.4529 13.7934 13.4529 13.3332C13.4529 12.8729 13.0798 12.4998 12.6195 12.4998L7.41732 12.4998C6.95708 12.4998 6.58398 12.8729 6.58398 13.3332Z" />
</svg>
