<svg width="16" height="16" viewBox="0 0 16 16"  xmlns="http://www.w3.org/2000/svg">
<path d="M14.4409 6.83314L8.44089 1.49981C8.31923 1.39293 8.16283 1.33398 8.00089 1.33398C7.83895 1.33398 7.68255 1.39293 7.56089 1.49981L1.56089 6.83314C1.45892 6.92335 1.38701 7.04262 1.35483 7.17491C1.32265 7.3072 1.33174 7.44617 1.38089 7.57314C1.42924 7.69843 1.5143 7.8062 1.62493 7.88233C1.73556 7.95846 1.8666 7.99941 2.00089 7.99981H2.66756V13.9998C2.66756 14.1766 2.7378 14.3462 2.86282 14.4712C2.98785 14.5962 3.15742 14.6665 3.33423 14.6665H12.6676C12.8444 14.6665 13.0139 14.5962 13.139 14.4712C13.264 14.3462 13.3342 14.1766 13.3342 13.9998V7.99981H14.0009C14.1352 7.99941 14.2662 7.95846 14.3769 7.88233C14.4875 7.8062 14.5725 7.69843 14.6209 7.57314C14.67 7.44617 14.6791 7.3072 14.647 7.17491C14.6148 7.04262 14.5429 6.92335 14.4409 6.83314ZM8.66756 13.3331H7.33423V11.3331C7.33423 11.1563 7.40446 10.9868 7.52949 10.8617C7.65451 10.7367 7.82408 10.6665 8.00089 10.6665C8.1777 10.6665 8.34727 10.7367 8.4723 10.8617C8.59732 10.9868 8.66756 11.1563 8.66756 11.3331V13.3331ZM12.0009 13.3331H10.0009V11.3331C10.0009 10.8027 9.79018 10.294 9.41511 9.91893C9.04003 9.54385 8.53133 9.33314 8.00089 9.33314C7.47046 9.33314 6.96175 9.54385 6.58668 9.91893C6.21161 10.294 6.00089 10.8027 6.00089 11.3331V13.3331H4.00089V7.99981H12.0009V13.3331ZM3.75423 6.66647L8.00089 2.89314L12.2476 6.66647H3.75423Z" />
</svg>
