<svg width="24" height="24" viewBox="0 0 24 24"  xmlns="http://www.w3.org/2000/svg">
<g clip-path="url(#clip0_1381_2435)">
<path fill-rule="evenodd" clip-rule="evenodd" d="M19.7181 14.3738C20.202 14.1076 20.8101 14.2842 21.0762 14.7681L21.6262 15.7681C21.645 15.8023 21.6618 15.8375 21.6765 15.8737C21.8566 16.317 21.928 16.7971 21.8848 17.2736C21.8415 17.7502 21.6849 18.2096 21.428 18.6133C21.1711 19.017 20.8213 19.3534 20.4079 19.5944C19.9945 19.8354 19.5294 19.974 19.0515 19.9987C19.0343 19.9996 19.0172 20 19 20H12.4142L12.7071 20.2929C13.0976 20.6834 13.0976 21.3166 12.7071 21.7071C12.3166 22.0976 11.6834 22.0976 11.2929 21.7071L9.29289 19.7071C9.10536 19.5196 9 19.2652 9 19C9 18.7348 9.10536 18.4804 9.29289 18.2929L11.2929 16.2929C11.6834 15.9024 12.3166 15.9024 12.7071 16.2929C13.0976 16.6834 13.0976 17.3166 12.7071 17.7071L12.4142 18H18.9698C19.1216 17.9889 19.269 17.9433 19.4007 17.8666C19.5385 17.7862 19.655 17.6741 19.7407 17.5395C19.8263 17.405 19.8785 17.2518 19.8929 17.093C19.9059 16.9503 19.888 16.8066 19.8407 16.6717L19.3238 15.7319C19.0576 15.248 19.2342 14.6399 19.7181 14.3738Z" />
<path fill-rule="evenodd" clip-rule="evenodd" d="M6.95123 18.9973C6.93977 19.5495 6.48286 19.9878 5.9307 19.9763L4.78967 19.9526C4.75066 19.9518 4.71174 19.9487 4.67309 19.9434C4.19908 19.8777 3.74767 19.6995 3.35655 19.4238C2.96543 19.148 2.64594 18.7828 2.42476 18.3584C2.20358 17.934 2.08713 17.4629 2.08512 16.9844C2.08312 16.5058 2.19562 16.0337 2.41323 15.6075C2.42104 15.5923 2.42924 15.5772 2.43783 15.5623L5.73073 9.85879L5.33062 9.966C4.79716 10.1089 4.24882 9.79236 4.10588 9.25889C3.96294 8.72543 4.27952 8.17709 4.81298 8.03415L7.54503 7.30209C7.80121 7.23345 8.07417 7.26938 8.30385 7.40199C8.53354 7.5346 8.70113 7.75302 8.76978 8.0092L9.50183 10.7413C9.64477 11.2747 9.32819 11.8231 8.79472 11.966C8.26126 12.109 7.71292 11.7924 7.56998 11.2589L7.46277 10.8588L4.18497 16.5362C4.11866 16.6732 4.08446 16.8236 4.0851 16.976C4.08577 17.1355 4.12458 17.2925 4.19831 17.434C4.27204 17.5755 4.37853 17.6972 4.50891 17.7891C4.62603 17.8717 4.75938 17.928 4.89983 17.9545L5.9722 17.9768C6.52436 17.9882 6.96269 18.4451 6.95123 18.9973Z" />
<path fill-rule="evenodd" clip-rule="evenodd" d="M9.3307 5.62902C8.85824 5.34301 8.70709 4.72815 8.9931 4.2557L9.58413 3.27938C9.60434 3.24601 9.62648 3.21384 9.65044 3.18305C9.94437 2.80541 10.3244 2.50356 10.7587 2.3027C11.1931 2.10185 11.6692 2.00781 12.1473 2.02844C12.6254 2.04907 13.0916 2.18378 13.507 2.42131C13.9225 2.65885 14.275 2.99231 14.5353 3.39387C14.5447 3.40828 14.5536 3.42293 14.5622 3.4378L17.8552 9.14127L17.9624 8.74116C18.1053 8.20769 18.6536 7.89111 19.1871 8.03406C19.7206 8.177 20.0372 8.72534 19.8942 9.2588L19.1622 11.9909C19.0192 12.5243 18.4709 12.8409 17.9374 12.698L15.2053 11.9659C14.6719 11.823 14.3553 11.2746 14.4982 10.7412C14.6412 10.2077 15.1895 9.89111 15.723 10.0341L16.1231 10.1413L12.8453 4.46393C12.7598 4.33801 12.6466 4.23317 12.5143 4.15753C12.3758 4.07835 12.2204 4.03345 12.061 4.02657C11.9017 4.0197 11.743 4.05104 11.5982 4.118C11.4681 4.17815 11.3527 4.26547 11.2595 4.37387L10.704 5.29143C10.418 5.76389 9.80316 5.91503 9.3307 5.62902Z" />
</g>
</svg>
