<svg width="16" height="16" viewBox="0 0 16 16" xmlns="http://www.w3.org/2000/svg">
<path fill-rule="evenodd" clip-rule="evenodd" d="M2.39052 2.39052C2.64057 2.14048 2.97971 2 3.33333 2H12.6667C13.0203 2 13.3594 2.14048 13.6095 2.39052C13.8595 2.64057 14 2.97971 14 3.33333V6.66667C14 7.02029 13.8595 7.35943 13.6095 7.60948C13.3594 7.85953 13.0203 8 12.6667 8H8V12.6667C8 13.0203 7.85953 13.3594 7.60948 13.6095C7.35943 13.8595 7.02029 14 6.66667 14H3.33333C2.97971 14 2.64057 13.8595 2.39052 13.6095C2.14048 13.3594 2 13.0203 2 12.6667V3.33333C2 2.97971 2.14048 2.64057 2.39052 2.39052ZM12.6667 3.33333L3.33333 3.33333L3.33333 12.6667H6.66667V8C6.66667 7.64638 6.80714 7.30724 7.05719 7.05719C7.30724 6.80714 7.64638 6.66667 8 6.66667H12.6667V3.33333Z" />
<path fill-rule="evenodd" clip-rule="evenodd" d="M2 5.33366C2 4.96547 2.29848 4.66699 2.66667 4.66699H4C4.36819 4.66699 4.66667 4.96547 4.66667 5.33366C4.66667 5.70185 4.36819 6.00033 4 6.00033H2.66667C2.29848 6.00033 2 5.70185 2 5.33366Z" />
<path fill-rule="evenodd" clip-rule="evenodd" d="M2 7.99967C2 7.63148 2.29848 7.33301 2.66667 7.33301H4.66667C5.03486 7.33301 5.33333 7.63148 5.33333 7.99967C5.33333 8.36786 5.03486 8.66634 4.66667 8.66634H2.66667C2.29848 8.66634 2 8.36786 2 7.99967Z" />
<path fill-rule="evenodd" clip-rule="evenodd" d="M2 10.6667C2 10.2985 2.29848 10 2.66667 10H4C4.36819 10 4.66667 10.2985 4.66667 10.6667C4.66667 11.0349 4.36819 11.3333 4 11.3333H2.66667C2.29848 11.3333 2 11.0349 2 10.6667Z" />
<path fill-rule="evenodd" clip-rule="evenodd" d="M5.33268 2C5.70087 2 5.99935 2.29848 5.99935 2.66667V4C5.99935 4.36819 5.70087 4.66667 5.33268 4.66667C4.96449 4.66667 4.66602 4.36819 4.66602 4V2.66667C4.66602 2.29848 4.96449 2 5.33268 2Z" />
<path fill-rule="evenodd" clip-rule="evenodd" d="M8.00065 2C8.36884 2 8.66732 2.29848 8.66732 2.66667V4.66667C8.66732 5.03486 8.36884 5.33333 8.00065 5.33333C7.63246 5.33333 7.33398 5.03486 7.33398 4.66667V2.66667C7.33398 2.29848 7.63246 2 8.00065 2Z" />
<path fill-rule="evenodd" clip-rule="evenodd" d="M10.6667 2C11.0349 2 11.3333 2.29848 11.3333 2.66667V4C11.3333 4.36819 11.0349 4.66667 10.6667 4.66667C10.2985 4.66667 10 4.36819 10 4V2.66667C10 2.29848 10.2985 2 10.6667 2Z" />
</svg>
