<svg width="16" height="16" viewBox="0 0 16 16" xmlns="http://www.w3.org/2000/svg">
<path fill-rule="evenodd" clip-rule="evenodd" d="M4 11.9998C3.63181 11.9998 3.33333 12.2983 3.33333 12.6665C3.33333 13.0347 3.63181 13.3332 4 13.3332C4.36819 13.3332 4.66667 13.0347 4.66667 12.6665C4.66667 12.2983 4.36819 11.9998 4 11.9998ZM2 12.6665C2 11.5619 2.89543 10.6665 4 10.6665C5.10457 10.6665 6 11.5619 6 12.6665C6 13.7711 5.10457 14.6665 4 14.6665C2.89543 14.6665 2 13.7711 2 12.6665Z" />
<path fill-rule="evenodd" clip-rule="evenodd" d="M11.334 11.9998C10.9658 11.9998 10.6673 12.2983 10.6673 12.6665C10.6673 13.0347 10.9658 13.3332 11.334 13.3332C11.7022 13.3332 12.0007 13.0347 12.0007 12.6665C12.0007 12.2983 11.7022 11.9998 11.334 11.9998ZM9.33398 12.6665C9.33398 11.5619 10.2294 10.6665 11.334 10.6665C12.4386 10.6665 13.334 11.5619 13.334 12.6665C13.334 13.7711 12.4386 14.6665 11.334 14.6665C10.2294 14.6665 9.33398 13.7711 9.33398 12.6665Z" />
<path fill-rule="evenodd" clip-rule="evenodd" d="M2 2.00016C2 1.63197 2.29848 1.3335 2.66667 1.3335H4C4.36819 1.3335 4.66667 1.63197 4.66667 2.00016V10.6668H11.3333C11.7015 10.6668 12 10.9653 12 11.3335C12 11.7017 11.7015 12.0002 11.3333 12.0002H4C3.63181 12.0002 3.33333 11.7017 3.33333 11.3335V2.66683H2.66667C2.29848 2.66683 2 2.36835 2 2.00016Z" />
<path fill-rule="evenodd" clip-rule="evenodd" d="M13.4283 3.33979C13.7928 3.39186 14.046 3.72955 13.994 4.09404L13.3273 8.76071C13.2804 9.08914 12.9991 9.33309 12.6673 9.33309H4.00065C3.63246 9.33309 3.33398 9.03462 3.33398 8.66643C3.33398 8.29824 3.63246 7.99976 4.00065 7.99976H12.0891L12.674 3.90548C12.7261 3.54099 13.0638 3.28772 13.4283 3.33979Z" />
<path fill-rule="evenodd" clip-rule="evenodd" d="M11.1381 2.19526C11.3984 2.45561 11.3984 2.87772 11.1381 3.13807L7.13807 7.13807C6.87772 7.39842 6.45561 7.39842 6.19526 7.13807C5.93491 6.87772 5.93491 6.45561 6.19526 6.19526L10.1953 2.19526C10.4556 1.93491 10.8777 1.93491 11.1381 2.19526Z" />
<path d="M6.99935 2.66683C7.18344 2.66683 7.33268 2.81607 7.33268 3.00016C7.33268 3.18426 7.18344 3.3335 6.99935 3.3335C6.81525 3.3335 6.66602 3.18426 6.66602 3.00016C6.66602 2.81607 6.81525 2.66683 6.99935 2.66683Z" />
<path fill-rule="evenodd" clip-rule="evenodd" d="M7 2.66667C7.1841 2.66667 7.33333 2.81591 7.33333 3C7.33333 3.18409 7.1841 3.33333 7 3.33333C6.8159 3.33333 6.66667 3.18409 6.66667 3C6.66667 2.81591 6.8159 2.66667 7 2.66667ZM6 3C6 3.55228 6.44771 4 7 4C7.55229 4 8 3.55228 8 3C8 2.44772 7.55229 2 7 2C6.44771 2 6 2.44772 6 3Z" />
<path d="M10.3333 6.66667C10.5174 6.66667 10.6667 6.51743 10.6667 6.33333C10.6667 6.14924 10.5174 6 10.3333 6C10.1492 6 10 6.14924 10 6.33333C10 6.51743 10.1492 6.66667 10.3333 6.66667Z" />
<path fill-rule="evenodd" clip-rule="evenodd" d="M10.334 6.66683C10.5181 6.66683 10.6673 6.51759 10.6673 6.3335C10.6673 6.1494 10.5181 6.00016 10.334 6.00016C10.1499 6.00016 10.0007 6.1494 10.0007 6.3335C10.0007 6.51759 10.1499 6.66683 10.334 6.66683ZM9.33398 6.3335C9.33398 5.78121 9.7817 5.3335 10.334 5.3335C10.8863 5.3335 11.334 5.78121 11.334 6.3335C11.334 6.88578 10.8863 7.3335 10.334 7.3335C9.7817 7.3335 9.33398 6.88578 9.33398 6.3335Z" />
</svg>
