<svg width="20" height="20" viewBox="0 0 20 20" xmlns="http://www.w3.org/2000/svg">
<path d="M5.83341 4.99984H5.00008V2.49984C5.00008 2.27882 4.91228 2.06686 4.756 1.91058C4.59972 1.7543 4.38776 1.6665 4.16675 1.6665C3.94573 1.6665 3.73377 1.7543 3.57749 1.91058C3.42121 2.06686 3.33341 2.27882 3.33341 2.49984V4.99984H2.50008C2.27907 4.99984 2.06711 5.08763 1.91083 5.24392C1.75455 5.4002 1.66675 5.61216 1.66675 5.83317C1.66675 6.05418 1.75455 6.26615 1.91083 6.42243C2.06711 6.57871 2.27907 6.6665 2.50008 6.6665H5.83341C6.05443 6.6665 6.26639 6.57871 6.42267 6.42243C6.57895 6.26615 6.66675 6.05418 6.66675 5.83317C6.66675 5.61216 6.57895 5.4002 6.42267 5.24392C6.26639 5.08763 6.05443 4.99984 5.83341 4.99984ZM4.16675 8.33317C3.94573 8.33317 3.73377 8.42097 3.57749 8.57725C3.42121 8.73353 3.33341 8.94549 3.33341 9.1665V17.4998C3.33341 17.7209 3.42121 17.9328 3.57749 18.0891C3.73377 18.2454 3.94573 18.3332 4.16675 18.3332C4.38776 18.3332 4.59972 18.2454 4.756 18.0891C4.91228 17.9328 5.00008 17.7209 5.00008 17.4998V9.1665C5.00008 8.94549 4.91228 8.73353 4.756 8.57725C4.59972 8.42097 4.38776 8.33317 4.16675 8.33317ZM10.0001 14.9998C9.77907 14.9998 9.56711 15.0876 9.41083 15.2439C9.25455 15.4002 9.16675 15.6122 9.16675 15.8332V17.4998C9.16675 17.7209 9.25455 17.9328 9.41083 18.0891C9.56711 18.2454 9.77907 18.3332 10.0001 18.3332C10.2211 18.3332 10.4331 18.2454 10.5893 18.0891C10.7456 17.9328 10.8334 17.7209 10.8334 17.4998V15.8332C10.8334 15.6122 10.7456 15.4002 10.5893 15.2439C10.4331 15.0876 10.2211 14.9998 10.0001 14.9998ZM17.5001 8.33317H16.6667V2.49984C16.6667 2.27882 16.579 2.06686 16.4227 1.91058C16.2664 1.7543 16.0544 1.6665 15.8334 1.6665C15.6124 1.6665 15.4004 1.7543 15.2442 1.91058C15.0879 2.06686 15.0001 2.27882 15.0001 2.49984V8.33317H14.1667C13.9457 8.33317 13.7338 8.42097 13.5775 8.57725C13.4212 8.73353 13.3334 8.94549 13.3334 9.1665C13.3334 9.38752 13.4212 9.59948 13.5775 9.75576C13.7338 9.91204 13.9457 9.99984 14.1667 9.99984H17.5001C17.7211 9.99984 17.9331 9.91204 18.0893 9.75576C18.2456 9.59948 18.3334 9.38752 18.3334 9.1665C18.3334 8.94549 18.2456 8.73353 18.0893 8.57725C17.9331 8.42097 17.7211 8.33317 17.5001 8.33317ZM15.8334 11.6665C15.6124 11.6665 15.4004 11.7543 15.2442 11.9106C15.0879 12.0669 15.0001 12.2788 15.0001 12.4998V17.4998C15.0001 17.7209 15.0879 17.9328 15.2442 18.0891C15.4004 18.2454 15.6124 18.3332 15.8334 18.3332C16.0544 18.3332 16.2664 18.2454 16.4227 18.0891C16.579 17.9328 16.6667 17.7209 16.6667 17.4998V12.4998C16.6667 12.2788 16.579 12.0669 16.4227 11.9106C16.2664 11.7543 16.0544 11.6665 15.8334 11.6665ZM11.6667 11.6665H10.8334V2.49984C10.8334 2.27882 10.7456 2.06686 10.5893 1.91058C10.4331 1.7543 10.2211 1.6665 10.0001 1.6665C9.77907 1.6665 9.56711 1.7543 9.41083 1.91058C9.25455 2.06686 9.16675 2.27882 9.16675 2.49984V11.6665H8.33342C8.1124 11.6665 7.90044 11.7543 7.74416 11.9106C7.58788 12.0669 7.50008 12.2788 7.50008 12.4998C7.50008 12.7209 7.58788 12.9328 7.74416 13.0891C7.90044 13.2454 8.1124 13.3332 8.33342 13.3332H11.6667C11.8878 13.3332 12.0997 13.2454 12.256 13.0891C12.4123 12.9328 12.5001 12.7209 12.5001 12.4998C12.5001 12.2788 12.4123 12.0669 12.256 11.9106C12.0997 11.7543 11.8878 11.6665 11.6667 11.6665Z" />
</svg>
