<svg width="16" height="16" viewBox="0 0 16 16" xmlns="http://www.w3.org/2000/svg">
<path d="M14.666 9.99984H13.3327V7.99984C13.3327 7.82303 13.2624 7.65346 13.1374 7.52843C13.0124 7.40341 12.8428 7.33317 12.666 7.33317H8.66602V5.99984H9.99935C10.1762 5.99984 10.3457 5.9296 10.4708 5.80457C10.5958 5.67955 10.666 5.50998 10.666 5.33317V1.33317C10.666 1.15636 10.5958 0.98679 10.4708 0.861766C10.3457 0.736742 10.1762 0.666504 9.99935 0.666504H5.99935C5.82254 0.666504 5.65297 0.736742 5.52794 0.861766C5.40292 0.98679 5.33268 1.15636 5.33268 1.33317V5.33317C5.33268 5.50998 5.40292 5.67955 5.52794 5.80457C5.65297 5.9296 5.82254 5.99984 5.99935 5.99984H7.33268V7.33317H3.33268C3.15587 7.33317 2.9863 7.40341 2.86128 7.52843C2.73625 7.65346 2.66602 7.82303 2.66602 7.99984V9.99984H1.33268C1.15587 9.99984 0.986302 10.0701 0.861278 10.1951C0.736253 10.3201 0.666016 10.4897 0.666016 10.6665V14.6665C0.666016 14.8433 0.736253 15.0129 0.861278 15.1379C0.986302 15.2629 1.15587 15.3332 1.33268 15.3332H5.33268C5.50949 15.3332 5.67906 15.2629 5.80409 15.1379C5.92911 15.0129 5.99935 14.8433 5.99935 14.6665V10.6665C5.99935 10.4897 5.92911 10.3201 5.80409 10.1951C5.67906 10.0701 5.50949 9.99984 5.33268 9.99984H3.99935V8.6665H11.9993V9.99984H10.666C10.4892 9.99984 10.3196 10.0701 10.1946 10.1951C10.0696 10.3201 9.99935 10.4897 9.99935 10.6665V14.6665C9.99935 14.8433 10.0696 15.0129 10.1946 15.1379C10.3196 15.2629 10.4892 15.3332 10.666 15.3332H14.666C14.8428 15.3332 15.0124 15.2629 15.1374 15.1379C15.2624 15.0129 15.3327 14.8433 15.3327 14.6665V10.6665C15.3327 10.4897 15.2624 10.3201 15.1374 10.1951C15.0124 10.0701 14.8428 9.99984 14.666 9.99984ZM4.66602 11.3332V13.9998H1.99935V11.3332H4.66602ZM6.66602 4.6665V1.99984H9.33268V4.6665H6.66602ZM13.9993 13.9998H11.3327V11.3332H13.9993V13.9998Z" />
</svg>
