<svg width="21" height="20" viewBox="0 0 21 20"  xmlns="http://www.w3.org/2000/svg">
<path d="M15.9167 7.1585L16.675 6.4085C16.8319 6.25158 16.9201 6.03875 16.9201 5.81683C16.9201 5.59491 16.8319 5.38208 16.675 5.22516C16.5181 5.06824 16.3053 4.98009 16.0834 4.98009C15.8614 4.98009 15.6486 5.06824 15.4917 5.22516L14.7417 5.9835C13.5738 5.08004 12.1391 4.58986 10.6625 4.58986C9.18599 4.58986 7.75123 5.08004 6.58336 5.9835L5.82502 5.21683C5.667 5.05991 5.45311 4.97219 5.23041 4.97297C5.00771 4.97375 4.79444 5.06297 4.63752 5.221C4.4806 5.37902 4.39288 5.59291 4.39367 5.81561C4.39445 6.03831 4.48366 6.25158 4.64169 6.4085L5.40836 7.16683C4.4942 8.33145 3.99818 9.76962 4.00002 11.2502C3.9973 12.313 4.24874 13.3611 4.73337 14.307C5.21801 15.253 5.92179 16.0693 6.78601 16.688C7.65024 17.3067 8.64987 17.7098 9.70153 17.8637C10.7532 18.0175 11.8264 17.9177 12.8316 17.5726C13.8369 17.2274 14.7451 16.6469 15.4804 15.8795C16.2157 15.112 16.7569 14.1799 17.0588 13.1608C17.3606 12.1417 17.4145 11.0652 17.2158 10.0211C17.0172 8.97699 16.5717 7.9955 15.9167 7.1585ZM10.6667 16.2502C9.67778 16.2502 8.71108 15.9569 7.88884 15.4075C7.06659 14.8581 6.42573 14.0772 6.04729 13.1636C5.66885 12.2499 5.56984 11.2446 5.76276 10.2747C5.95569 9.30481 6.43189 8.41389 7.13116 7.71463C7.83042 7.01537 8.72133 6.53916 9.69124 6.34624C10.6611 6.15331 11.6665 6.25233 12.5801 6.63076C13.4937 7.0092 14.2746 7.65007 14.824 8.47231C15.3734 9.29456 15.6667 10.2613 15.6667 11.2502C15.6667 12.5762 15.1399 13.848 14.2022 14.7857C13.2645 15.7234 11.9928 16.2502 10.6667 16.2502ZM9.00002 3.75016H12.3334C12.5544 3.75016 12.7663 3.66237 12.9226 3.50608C13.0789 3.3498 13.1667 3.13784 13.1667 2.91683C13.1667 2.69582 13.0789 2.48385 12.9226 2.32757C12.7663 2.17129 12.5544 2.0835 12.3334 2.0835H9.00002C8.77901 2.0835 8.56705 2.17129 8.41077 2.32757C8.25449 2.48385 8.16669 2.69582 8.16669 2.91683C8.16669 3.13784 8.25449 3.3498 8.41077 3.50608C8.56705 3.66237 8.77901 3.75016 9.00002 3.75016ZM11.5 8.75016C11.5 8.52915 11.4122 8.31719 11.2559 8.16091C11.0997 8.00463 10.8877 7.91683 10.6667 7.91683C10.4457 7.91683 10.2337 8.00463 10.0774 8.16091C9.92115 8.31719 9.83336 8.52915 9.83336 8.75016V10.3252C9.64466 10.4939 9.51166 10.716 9.45195 10.962C9.39225 11.208 9.40864 11.4664 9.49897 11.7029C9.58931 11.9394 9.74931 12.1429 9.95783 12.2864C10.1663 12.43 10.4135 12.5069 10.6667 12.5069C10.9198 12.5069 11.167 12.43 11.3755 12.2864C11.5841 12.1429 11.7441 11.9394 11.8344 11.7029C11.9247 11.4664 11.9411 11.208 11.8814 10.962C11.8217 10.716 11.6887 10.4939 11.5 10.3252V8.75016Z" />
</svg>
