<svg width="16" height="16" viewBox="0 0 16 16" xmlns="http://www.w3.org/2000/svg">
<path d="M10.0661 8.4222L8.66732 7.61491V4.66634C8.66732 4.48953 8.59708 4.31996 8.47206 4.19494C8.34703 4.06991 8.17746 3.99967 8.00065 3.99967C7.82384 3.99967 7.65427 4.06991 7.52925 4.19494C7.40423 4.31996 7.33399 4.48953 7.33399 4.66634V7.99967C7.33396 8.11672 7.36475 8.23171 7.42326 8.33309C7.48177 8.43446 7.56595 8.51863 7.66732 8.57715L9.39941 9.57715C9.47525 9.62098 9.55898 9.64943 9.64582 9.66089C9.73266 9.67235 9.8209 9.66658 9.90551 9.64393C9.99012 9.62127 10.0694 9.58217 10.1389 9.52885C10.2084 9.47553 10.2667 9.40904 10.3105 9.33318C10.3543 9.25732 10.3827 9.17357 10.3941 9.08673C10.4055 8.99989 10.3997 8.91165 10.377 8.82705C10.3543 8.74245 10.3152 8.66315 10.2618 8.59369C10.2085 8.52422 10.142 8.46595 10.0661 8.4222ZM8.00065 1.33301C6.68211 1.33301 5.39318 1.724 4.29685 2.45654C3.20052 3.18909 2.34604 4.23028 1.84146 5.44845C1.33687 6.66663 1.20485 8.00707 1.46209 9.30028C1.71932 10.5935 2.35426 11.7814 3.28661 12.7137C4.21896 13.6461 5.40685 14.281 6.70005 14.5382C7.99326 14.7955 9.3337 14.6635 10.5519 14.1589C11.7701 13.6543 12.8112 12.7998 13.5438 11.7035C14.2763 10.6071 14.6673 9.31822 14.6673 7.99967C14.6654 6.23217 13.9623 4.53762 12.7125 3.2878C11.4627 2.03798 9.76816 1.33497 8.00065 1.33301ZM8.00065 13.333C6.94582 13.333 5.91467 13.0202 5.03761 12.4342C4.16055 11.8481 3.47696 11.0152 3.0733 10.0407C2.66963 9.06611 2.56401 7.99376 2.7698 6.95919C2.97559 5.92463 3.48354 4.97432 4.22942 4.22844C4.9753 3.48256 5.92561 2.97461 6.96017 2.76882C7.99474 2.56303 9.06709 2.66865 10.0416 3.07232C11.0162 3.47598 11.8491 4.15957 12.4352 5.03663C13.0212 5.9137 13.334 6.94484 13.334 7.99967C13.3324 9.41367 12.7699 10.7693 11.7701 11.7691C10.7703 12.769 9.41465 13.3314 8.00065 13.333Z" />
</svg>
