<svg width="20" height="20" viewBox="0 0 20 20"  xmlns="http://www.w3.org/2000/svg">
<path fill-rule="evenodd" clip-rule="evenodd" d="M4.05688 7.30778C4.1459 6.93193 4.48152 6.6665 4.86778 6.6665H15.1309C15.5172 6.6665 15.8528 6.93193 15.9418 7.30778L18.3103 17.3078C18.369 17.5557 18.311 17.8169 18.153 18.0168C17.9949 18.2166 17.7542 18.3332 17.4994 18.3332H2.49936C2.24456 18.3332 2.00377 18.2166 1.84572 18.0168C1.68767 17.8169 1.62973 17.5557 1.68846 17.3078L4.05688 7.30778ZM5.5268 8.33317L3.55311 16.6665H16.4456L14.4719 8.33317H5.5268Z" />
<path fill-rule="evenodd" clip-rule="evenodd" d="M10 4.16667C9.53976 4.16667 9.16667 4.53976 9.16667 5C9.16667 5.46024 9.53976 5.83333 10 5.83333C10.4602 5.83333 10.8333 5.46024 10.8333 5C10.8333 4.53976 10.4602 4.16667 10 4.16667ZM7.5 5C7.5 3.61929 8.61929 2.5 10 2.5C11.3807 2.5 12.5 3.61929 12.5 5C12.5 6.38071 11.3807 7.5 10 7.5C8.61929 7.5 7.5 6.38071 7.5 5Z" />
</svg>
