<svg width="16" height="16" viewBox="0 0 16 16" fill="none" xmlns="http://www.w3.org/2000/svg">
<g id="Icons / user line">
<path id="Vector" d="M10.4733 8.47374C11.1269 7.95951 11.604 7.25436 11.8382 6.45637C12.0723 5.65838 12.0519 4.80725 11.7799 4.02139C11.5078 3.23552 10.9975 2.554 10.32 2.07165C9.64259 1.58929 8.83163 1.33008 8 1.33008C7.16837 1.33008 6.35741 1.58929 5.67995 2.07165C5.0025 2.554 4.49223 3.23552 4.22014 4.02139C3.94805 4.80725 3.92767 5.65838 4.16184 6.45637C4.39601 7.25436 4.87307 7.95951 5.52667 8.47374C4.40672 8.92244 3.42952 9.66664 2.69926 10.627C1.969 11.5874 1.51304 12.7279 1.38 13.9271C1.37037 14.0146 1.37808 14.1032 1.40268 14.1878C1.42729 14.2723 1.46831 14.3512 1.52341 14.42C1.63468 14.5587 1.79652 14.6476 1.97333 14.6671C2.15014 14.6865 2.32744 14.6349 2.46622 14.5237C2.60499 14.4124 2.69388 14.2506 2.71333 14.0737C2.85972 12.7705 3.48112 11.5669 4.45881 10.6929C5.4365 9.81892 6.70193 9.33576 8.01333 9.33576C9.32474 9.33576 10.5902 9.81892 11.5679 10.6929C12.5455 11.5669 13.1669 12.7705 13.3133 14.0737C13.3315 14.2376 13.4096 14.3888 13.5327 14.4984C13.6559 14.608 13.8152 14.6681 13.98 14.6671H14.0533C14.2281 14.647 14.3878 14.5586 14.4977 14.4212C14.6076 14.2839 14.6587 14.1086 14.64 13.9337C14.5063 12.7312 14.0479 11.5877 13.3139 10.6259C12.5799 9.66402 11.5979 8.92006 10.4733 8.47374ZM8 8.00041C7.47258 8.00041 6.95701 7.84401 6.51848 7.55099C6.07995 7.25798 5.73815 6.8415 5.53632 6.35423C5.33449 5.86696 5.28168 5.33078 5.38457 4.8135C5.48747 4.29622 5.74144 3.82106 6.11438 3.44812C6.48732 3.07518 6.96248 2.82121 7.47976 2.71831C7.99704 2.61542 8.53322 2.66823 9.02049 2.87006C9.50776 3.0719 9.92424 3.41369 10.2173 3.85222C10.5103 4.29075 10.6667 4.80633 10.6667 5.33374C10.6667 6.04099 10.3857 6.71926 9.88562 7.21936C9.38552 7.71946 8.70724 8.00041 8 8.00041Z" fill="#0E0F11"/>
</g>
</svg>
