<svg width="24" height="24" viewBox="0 0 24 24" fill="none" xmlns="http://www.w3.org/2000/svg">
<path fill-rule="evenodd" clip-rule="evenodd" d="M11.5663 2.01899C12.2954 1.95548 13.0294 2.05277 13.7167 2.30398C14.404 2.55519 15.0278 2.95421 15.5441 3.47285C16.0603 3.9915 16.4564 4.61715 16.7044 5.30561C16.9524 5.99408 17.0462 6.7286 16.9793 7.45731C16.9124 8.18601 16.6864 8.89115 16.3171 9.52295C15.9479 10.1547 15.4445 10.6978 14.8425 11.1138C14.3881 11.4277 13.7652 11.3138 13.4513 10.8595C13.1374 10.4051 13.2512 9.78224 13.7056 9.46831C14.0668 9.21872 14.3689 8.8929 14.5904 8.51382C14.8119 8.13474 14.9476 7.71166 14.9877 7.27443C15.0278 6.83721 14.9715 6.3965 14.8227 5.98342C14.6739 5.57034 14.4363 5.19495 14.1265 4.88376C13.8168 4.57257 13.4425 4.33316 13.0301 4.18244C12.6178 4.03171 12.1773 3.97334 11.7399 4.01144C11.3025 4.04955 10.8788 4.1832 10.4987 4.40296C10.1186 4.62272 9.79135 4.92324 9.54008 5.2833C9.22402 5.73621 8.60065 5.84715 8.14775 5.53109C7.69484 5.21504 7.5839 4.59167 7.89996 4.13876C8.31873 3.53866 8.86412 3.03779 9.49764 2.67152C10.1311 2.30525 10.8373 2.08249 11.5663 2.01899ZM7.87988 7.20765C8.40807 7.04631 8.96705 7.3437 9.12839 7.87189C9.27073 8.33786 9.52406 8.76232 9.86661 9.10879C10.2092 9.45527 10.6307 9.71341 11.095 9.86104C11.6213 10.0284 11.9124 10.5907 11.745 11.117C11.5777 11.6434 11.0153 11.9344 10.489 11.767C9.71617 11.5213 9.01453 11.0916 8.44437 10.5149C7.87421 9.93824 7.45256 9.23176 7.21564 8.45617C7.0543 7.92798 7.35169 7.369 7.87988 7.20765Z" fill="#8891A0"/>
<path fill-rule="evenodd" clip-rule="evenodd" d="M14.8611 16.1252C14.5819 16.042 14.2921 15.9998 14.0008 16L10 16C9.20435 16 8.44129 16.3161 7.87868 16.8787C7.31607 17.4413 7 18.2044 7 19V21C7 21.5523 6.55228 22 6 22C5.44772 22 5 21.5523 5 21V19C5 17.6739 5.52678 16.4021 6.46447 15.4645C7.40215 14.5268 8.67392 14 10 14H13.9996M17.5452 16.89C18.0743 16.7316 18.6316 17.0321 18.79 17.5612C18.9298 18.0282 19.0005 18.513 19 19.0004" fill="#8891A0"/>
<path fill-rule="evenodd" clip-rule="evenodd" d="M2.29289 2.29289C2.68342 1.90237 3.31658 1.90237 3.70711 2.29289L21.7071 20.2929C22.0976 20.6834 22.0976 21.3166 21.7071 21.7071C21.3166 22.0976 20.6834 22.0976 20.2929 21.7071L2.29289 3.70711C1.90237 3.31658 1.90237 2.68342 2.29289 2.29289Z" fill="#8891A0"/>
</svg>
