<svg width="32" height="32" viewBox="0 0 32 32" fill="none" xmlns="http://www.w3.org/2000/svg">
<circle cx="16" cy="16" r="15" fill="#EBEAF0" stroke="#0E0F11" stroke-width="2"/>
<g clip-path="url(#clip0_79_8434)">
<path d="M15.9998 15.1667C17.8408 15.1667 19.3332 13.6743 19.3332 11.8333C19.3332 9.99238 17.8408 8.5 15.9998 8.5C14.1589 8.5 12.6665 9.99238 12.6665 11.8333C12.6665 13.6743 14.1589 15.1667 15.9998 15.1667Z" stroke="#0E0F11" stroke-width="2" stroke-linecap="round" stroke-linejoin="round"/>
<path d="M11 23.5V21.8333C11 20.9493 11.3512 20.1014 11.9763 19.4763C12.6014 18.8512 13.4493 18.5 14.3333 18.5H17.6667C18.5507 18.5 19.3986 18.8512 20.0237 19.4763C20.6488 20.1014 21 20.9493 21 21.8333V23.5" stroke="#0E0F11" stroke-width="2" stroke-linecap="round" stroke-linejoin="round"/>
</g>
<defs>
<clipPath id="clip0_79_8434">
<rect width="20" height="20" fill="white" transform="translate(6 6)"/>
</clipPath>
</defs>
</svg>
